<?xml version="1.0" encoding="UTF-8"?>
<svg xmlns="http://www.w3.org/2000/svg" xmlns:xlink="http://www.w3.org/1999/xlink" width="60px" height="60px" viewBox="0 0 60 60" version="1.1">
<defs>
<filter id="alpha" filterUnits="objectBoundingBox" x="0%" y="0%" width="100%" height="100%">
  <feColorMatrix type="matrix" in="SourceGraphic" values="0 0 0 0 1 0 0 0 0 1 0 0 0 0 1 0 0 0 1 0"/>
</filter>
<mask id="mask0">
  <g filter="url(#alpha)">
<rect x="0" y="0" width="60" height="60" style="fill:rgb(0%,0%,0%);fill-opacity:0.00392157;stroke:none;"/>
  </g>
</mask>
<clipPath id="clip1">
  <rect x="0" y="0" width="60" height="60"/>
</clipPath>
<g id="surface5" clip-path="url(#clip1)">
<path style=" stroke:none;fill-rule:evenodd;fill:rgb(99.607843%,100%,99.607843%);fill-opacity:1;" d="M 53.820312 -0.0390625 C 54.210938 -0.0390625 54.597656 -0.0390625 54.988281 -0.0390625 C 55.011719 0.0664062 55.039062 0.0664062 55.066406 -0.0390625 C 55.140625 -0.0390625 55.21875 -0.0390625 55.296875 -0.0390625 C 55.324219 0.0664062 55.351562 0.0664062 55.375 -0.0390625 C 55.402344 -0.0390625 55.425781 -0.0390625 55.453125 -0.0390625 C 55.738281 0.0664062 56.023438 0.0664062 56.308594 -0.0390625 C 56.335938 -0.0390625 56.359375 -0.0390625 56.386719 -0.0390625 C 56.410156 0.0664062 56.4375 0.0664062 56.464844 -0.0390625 C 56.488281 -0.0390625 56.515625 -0.0390625 56.542969 -0.0390625 C 56.566406 0.0664062 56.59375 0.0664062 56.621094 -0.0390625 C 56.644531 -0.0390625 56.671875 -0.0390625 56.695312 -0.0390625 C 56.800781 0.0664062 56.863281 0.195312 56.890625 0.351562 C 56.917969 0.246094 56.941406 0.140625 56.96875 0.0390625 C 56.992188 0.179688 57.046875 0.203125 57.125 0.117188 C 57.160156 0.191406 57.175781 0.269531 57.164062 0.351562 C 57.476562 0.328125 57.515625 0.378906 57.28125 0.503906 C 56.15625 0.453125 55.03125 0.414062 53.898438 0.386719 C 54.339844 0.363281 54.78125 0.335938 55.21875 0.3125 C 54.660156 0.316406 54.117188 0.238281 53.589844 0.078125 C 53.683594 0.0585938 53.761719 0.0195312 53.820312 -0.0390625 Z M 53.820312 -0.0390625 "/>
</g>
<mask id="mask1">
  <g filter="url(#alpha)">
<rect x="0" y="0" width="60" height="60" style="fill:rgb(0%,0%,0%);fill-opacity:0.00392157;stroke:none;"/>
  </g>
</mask>
<clipPath id="clip2">
  <rect x="0" y="0" width="60" height="60"/>
</clipPath>
<g id="surface8" clip-path="url(#clip2)">
<path style=" stroke:none;fill-rule:evenodd;fill:rgb(99.607843%,100%,99.607843%);fill-opacity:1;" d="M 59.496094 -0.0390625 C 59.648438 -0.0390625 59.804688 -0.0390625 59.960938 -0.0390625 C 59.960938 0.0117188 59.960938 0.0664062 59.960938 0.117188 C 59.902344 0.105469 59.851562 0.121094 59.804688 0.15625 C 59.898438 0.207031 59.898438 0.246094 59.804688 0.273438 C 59.75 0.230469 59.714844 0.179688 59.6875 0.117188 C 59.605469 0.175781 59.515625 0.164062 59.417969 0.078125 C 59.460938 0.046875 59.484375 0.0078125 59.496094 -0.0390625 Z M 59.496094 -0.0390625 "/>
</g>
<mask id="mask2">
  <g filter="url(#alpha)">
<rect x="0" y="0" width="60" height="60" style="fill:rgb(0%,0%,0%);fill-opacity:0.00392157;stroke:none;"/>
  </g>
</mask>
<clipPath id="clip3">
  <rect x="0" y="0" width="60" height="60"/>
</clipPath>
<g id="surface11" clip-path="url(#clip3)">
<path style=" stroke:none;fill-rule:evenodd;fill:rgb(99.607843%,100%,99.607843%);fill-opacity:1;" d="M 22.65625 0.0390625 C 22.757812 0.0898438 22.757812 0.0898438 22.65625 0.0390625 Z M 22.65625 0.0390625 "/>
</g>
<mask id="mask3">
  <g filter="url(#alpha)">
<rect x="0" y="0" width="60" height="60" style="fill:rgb(0%,0%,0%);fill-opacity:0.00392157;stroke:none;"/>
  </g>
</mask>
<clipPath id="clip4">
  <rect x="0" y="0" width="60" height="60"/>
</clipPath>
<g id="surface14" clip-path="url(#clip4)">
<path style=" stroke:none;fill-rule:evenodd;fill:rgb(99.607843%,100%,99.607843%);fill-opacity:1;" d="M 22.8125 0.117188 C 22.894531 0.03125 23 0.0195312 23.121094 0.078125 C 23.015625 0.179688 22.910156 0.195312 22.8125 0.117188 Z M 22.8125 0.117188 "/>
</g>
<mask id="mask4">
  <g filter="url(#alpha)">
<rect x="0" y="0" width="60" height="60" style="fill:rgb(0%,0%,0%);fill-opacity:0.00392157;stroke:none;"/>
  </g>
</mask>
<clipPath id="clip5">
  <rect x="0" y="0" width="60" height="60"/>
</clipPath>
<g id="surface17" clip-path="url(#clip5)">
<path style=" stroke:none;fill-rule:evenodd;fill:rgb(99.607843%,100%,99.607843%);fill-opacity:1;" d="M 23.199219 0.0390625 C 23.355469 0.0273438 23.511719 0.0390625 23.664062 0.078125 C 23.597656 0.289062 23.535156 0.304688 23.472656 0.117188 C 23.445312 0.167969 23.417969 0.21875 23.394531 0.273438 C 23.285156 0.226562 23.21875 0.148438 23.199219 0.0390625 Z M 23.199219 0.0390625 "/>
</g>
<mask id="mask5">
  <g filter="url(#alpha)">
<rect x="0" y="0" width="60" height="60" style="fill:rgb(0%,0%,0%);fill-opacity:0.00392157;stroke:none;"/>
  </g>
</mask>
<clipPath id="clip6">
  <rect x="0" y="0" width="60" height="60"/>
</clipPath>
<g id="surface20" clip-path="url(#clip6)">
<path style=" stroke:none;fill-rule:evenodd;fill:rgb(99.607843%,100%,99.607843%);fill-opacity:1;" d="M 23.820312 0.0390625 C 23.949219 0.0273438 24.039062 0.078125 24.09375 0.195312 C 24.15625 0.0078125 24.21875 0.0195312 24.289062 0.234375 C 24.132812 0.273438 23.980469 0.285156 23.820312 0.273438 C 23.820312 0.195312 23.820312 0.117188 23.820312 0.0390625 Z M 23.820312 0.0390625 "/>
</g>
<mask id="mask6">
  <g filter="url(#alpha)">
<rect x="0" y="0" width="60" height="60" style="fill:rgb(0%,0%,0%);fill-opacity:0.00392157;stroke:none;"/>
  </g>
</mask>
<clipPath id="clip7">
  <rect x="0" y="0" width="60" height="60"/>
</clipPath>
<g id="surface23" clip-path="url(#clip7)">
<path style=" stroke:none;fill-rule:evenodd;fill:rgb(99.607843%,100%,99.607843%);fill-opacity:1;" d="M 24.441406 0.0390625 C 24.527344 0.0976562 24.539062 0.175781 24.480469 0.273438 C 24.445312 0.199219 24.429688 0.121094 24.441406 0.0390625 Z M 24.441406 0.0390625 "/>
</g>
<mask id="mask7">
  <g filter="url(#alpha)">
<rect x="0" y="0" width="60" height="60" style="fill:rgb(0%,0%,0%);fill-opacity:0.00392157;stroke:none;"/>
  </g>
</mask>
<clipPath id="clip8">
  <rect x="0" y="0" width="60" height="60"/>
</clipPath>
<g id="surface26" clip-path="url(#clip8)">
<path style=" stroke:none;fill-rule:evenodd;fill:rgb(99.607843%,100%,99.607843%);fill-opacity:1;" d="M 24.597656 0.0390625 C 24.703125 0.0898438 24.703125 0.0898438 24.597656 0.0390625 Z M 24.597656 0.0390625 "/>
</g>
<mask id="mask8">
  <g filter="url(#alpha)">
<rect x="0" y="0" width="60" height="60" style="fill:rgb(0%,0%,0%);fill-opacity:0.00392157;stroke:none;"/>
  </g>
</mask>
<clipPath id="clip9">
  <rect x="0" y="0" width="60" height="60"/>
</clipPath>
<g id="surface29" clip-path="url(#clip9)">
<path style=" stroke:none;fill-rule:evenodd;fill:rgb(99.607843%,100%,99.607843%);fill-opacity:1;" d="M 24.441406 0.425781 C 24.5 0.34375 24.578125 0.332031 24.675781 0.386719 C 24.601562 0.425781 24.523438 0.4375 24.441406 0.425781 Z M 24.441406 0.425781 "/>
</g>
<mask id="mask9">
  <g filter="url(#alpha)">
<rect x="0" y="0" width="60" height="60" style="fill:rgb(0%,0%,0%);fill-opacity:0.00392157;stroke:none;"/>
  </g>
</mask>
<clipPath id="clip10">
  <rect x="0" y="0" width="60" height="60"/>
</clipPath>
<g id="surface32" clip-path="url(#clip10)">
<path style=" stroke:none;fill-rule:evenodd;fill:rgb(99.607843%,100%,99.607843%);fill-opacity:1;" d="M 24.753906 0.425781 C 24.785156 0.347656 24.835938 0.335938 24.910156 0.386719 C 24.863281 0.425781 24.8125 0.4375 24.753906 0.425781 Z M 24.753906 0.425781 "/>
</g>
<mask id="mask10">
  <g filter="url(#alpha)">
<rect x="0" y="0" width="60" height="60" style="fill:rgb(0%,0%,0%);fill-opacity:0.00392157;stroke:none;"/>
  </g>
</mask>
<clipPath id="clip11">
  <rect x="0" y="0" width="60" height="60"/>
</clipPath>
<g id="surface35" clip-path="url(#clip11)">
<path style=" stroke:none;fill-rule:evenodd;fill:rgb(99.607843%,100%,99.607843%);fill-opacity:1;" d="M 57.550781 0.351562 C 57.65625 0.402344 57.65625 0.402344 57.550781 0.351562 Z M 57.550781 0.351562 "/>
</g>
<mask id="mask11">
  <g filter="url(#alpha)">
<rect x="0" y="0" width="60" height="60" style="fill:rgb(0%,0%,0%);fill-opacity:0.00392157;stroke:none;"/>
  </g>
</mask>
<clipPath id="clip12">
  <rect x="0" y="0" width="60" height="60"/>
</clipPath>
<g id="surface38" clip-path="url(#clip12)">
<path style=" stroke:none;fill-rule:evenodd;fill:rgb(99.607843%,100%,99.607843%);fill-opacity:1;" d="M 59.960938 0.503906 C 59.960938 0.53125 59.960938 0.558594 59.960938 0.582031 C 59.910156 0.546875 59.910156 0.519531 59.960938 0.503906 Z M 59.960938 0.503906 "/>
</g>
<mask id="mask12">
  <g filter="url(#alpha)">
<rect x="0" y="0" width="60" height="60" style="fill:rgb(0%,0%,0%);fill-opacity:0.00392157;stroke:none;"/>
  </g>
</mask>
<clipPath id="clip13">
  <rect x="0" y="0" width="60" height="60"/>
</clipPath>
<g id="surface41" clip-path="url(#clip13)">
<path style=" stroke:none;fill-rule:evenodd;fill:rgb(99.607843%,100%,99.607843%);fill-opacity:1;" d="M 59.726562 0.660156 C 59.816406 0.800781 59.828125 0.953125 59.765625 1.125 C 59.726562 0.972656 59.714844 0.816406 59.726562 0.660156 Z M 59.726562 0.660156 "/>
</g>
<mask id="mask13">
  <g filter="url(#alpha)">
<rect x="0" y="0" width="60" height="60" style="fill:rgb(0%,0%,0%);fill-opacity:0.00392157;stroke:none;"/>
  </g>
</mask>
<clipPath id="clip14">
  <rect x="0" y="0" width="60" height="60"/>
</clipPath>
<g id="surface44" clip-path="url(#clip14)">
<path style=" stroke:none;fill-rule:evenodd;fill:rgb(99.607843%,100%,99.607843%);fill-opacity:1;" d="M 59.960938 0.660156 C 59.960938 0.738281 59.960938 0.816406 59.960938 0.894531 C 59.859375 0.816406 59.859375 0.738281 59.960938 0.660156 Z M 59.960938 0.660156 "/>
</g>
<mask id="mask14">
  <g filter="url(#alpha)">
<rect x="0" y="0" width="60" height="60" style="fill:rgb(0%,0%,0%);fill-opacity:0.00392157;stroke:none;"/>
  </g>
</mask>
<clipPath id="clip15">
  <rect x="0" y="0" width="60" height="60"/>
</clipPath>
<g id="surface47" clip-path="url(#clip15)">
<path style=" stroke:none;fill-rule:evenodd;fill:rgb(99.607843%,100%,99.607843%);fill-opacity:1;" d="M 59.960938 0.972656 C 59.960938 0.996094 59.960938 1.023438 59.960938 1.050781 C 59.910156 1.011719 59.910156 0.984375 59.960938 0.972656 Z M 59.960938 0.972656 "/>
</g>
<mask id="mask15">
  <g filter="url(#alpha)">
<rect x="0" y="0" width="60" height="60" style="fill:rgb(0%,0%,0%);fill-opacity:0.313725;stroke:none;"/>
  </g>
</mask>
<clipPath id="clip16">
  <rect x="0" y="0" width="60" height="60"/>
</clipPath>
<g id="surface50" clip-path="url(#clip16)">
<path style=" stroke:none;fill-rule:evenodd;fill:rgb(97.254902%,94.117647%,93.333333%);fill-opacity:1;" d="M 15.273438 22.886719 C 15.074219 24.011719 14.84375 25.125 14.574219 26.230469 C 14.53125 26.234375 14.503906 26.261719 14.496094 26.308594 C 15.15625 26.410156 15.800781 26.410156 16.4375 26.308594 C 16.4375 24.882812 16.4375 23.457031 16.4375 22.035156 C 16.4375 21.980469 16.4375 21.929688 16.4375 21.878906 C 16.449219 20.6875 16.4375 19.496094 16.398438 18.304688 C 16.289062 18.976562 16.121094 19.625 15.894531 20.246094 C 16.023438 19.269531 16.230469 18.324219 16.515625 17.410156 C 20.058594 17.363281 23.609375 17.363281 27.164062 17.410156 C 27.230469 17.460938 27.28125 17.527344 27.320312 17.605469 C 27.34375 20.179688 27.316406 22.757812 27.242188 25.335938 C 27.285156 25.539062 27.351562 25.734375 27.433594 25.917969 C 28.210938 24.625 28.988281 23.328125 29.765625 22.035156 C 29.847656 21.941406 29.9375 21.863281 30.039062 21.800781 C 30.828125 20.273438 31.695312 18.796875 32.640625 17.371094 C 35.855469 17.371094 39.09375 17.371094 42.359375 17.371094 C 42.605469 17.382812 42.851562 17.394531 43.097656 17.410156 C 43.132812 17.449219 43.171875 17.488281 43.210938 17.527344 C 43.222656 23.484375 43.234375 29.414062 43.25 35.324219 C 44.9375 35.347656 46.621094 35.324219 48.304688 35.246094 C 48.355469 34.527344 48.40625 33.816406 48.457031 33.109375 C 48.414062 28.125 48.402344 22.929688 48.417969 17.527344 C 48.5625 17.40625 48.730469 17.355469 48.925781 17.371094 C 50.53125 17.433594 52.136719 17.445312 53.742188 17.410156 C 53.816406 23.425781 53.84375 29.449219 53.820312 35.480469 C 53.757812 36.433594 53.71875 37.394531 53.703125 38.355469 C 53.273438 39.304688 52.535156 39.835938 51.488281 39.949219 C 50.464844 39.964844 49.441406 40.003906 48.417969 40.066406 C 47.433594 40.015625 46.449219 39.960938 45.464844 39.910156 C 44.695312 39.921875 43.945312 39.949219 43.210938 39.988281 C 42.058594 39.929688 40.90625 39.890625 39.753906 39.871094 C 38.710938 39.628906 38.050781 38.996094 37.773438 37.964844 C 37.746094 31.410156 37.71875 24.859375 37.695312 18.304688 C 37.664062 18.269531 37.625 18.242188 37.578125 18.226562 C 35.445312 21.738281 33.34375 25.273438 31.28125 28.835938 C 33.472656 32.503906 35.699219 36.15625 37.964844 39.792969 C 37.914062 39.84375 37.863281 39.894531 37.8125 39.949219 C 36.046875 40.011719 34.285156 40 32.527344 39.910156 C 30.824219 37.046875 29.101562 34.195312 27.359375 31.359375 C 27.355469 34.214844 27.304688 37.066406 27.203125 39.910156 C 25.441406 40.058594 23.652344 40.058594 21.839844 39.910156 C 21.8125 33.25 21.789062 26.59375 21.761719 19.933594 C 21.75 19.738281 21.699219 19.554688 21.605469 19.390625 C 19.980469 25.691406 18.425781 32.015625 16.941406 38.355469 C 16.871094 38.820312 16.808594 39.285156 16.75 39.753906 C 16.660156 39.804688 16.582031 39.867188 16.515625 39.949219 C 14.726562 40.011719 12.941406 40 11.152344 39.910156 C 9.367188 32.453125 7.578125 24.992188 5.789062 17.527344 C 5.804688 17.480469 5.832031 17.441406 5.867188 17.410156 C 6.011719 17.394531 6.152344 17.382812 6.296875 17.371094 C 7.917969 17.4375 9.574219 17.464844 11.269531 17.449219 C 12.085938 20.628906 12.839844 23.84375 13.523438 27.085938 C 13.59375 27.496094 13.722656 27.886719 13.910156 28.25 C 14.355469 26.453125 14.808594 24.664062 15.273438 22.886719 Z M 15.273438 22.886719 "/>
</g>
<mask id="mask16">
  <g filter="url(#alpha)">
<rect x="0" y="0" width="60" height="60" style="fill:rgb(0%,0%,0%);fill-opacity:0.992157;stroke:none;"/>
  </g>
</mask>
<clipPath id="clip17">
  <rect x="0" y="0" width="60" height="60"/>
</clipPath>
<g id="surface53" clip-path="url(#clip17)">
<path style=" stroke:none;fill-rule:evenodd;fill:rgb(78.431373%,12.54902%,19.607843%);fill-opacity:1;" d="M 11.152344 21.878906 C 9.746094 21.902344 8.347656 21.878906 6.957031 21.800781 C 6.632812 20.378906 6.320312 18.953125 6.023438 17.527344 C 7.734375 17.527344 9.441406 17.527344 11.152344 17.527344 C 11.152344 18.976562 11.152344 20.425781 11.152344 21.878906 Z M 11.152344 21.878906 "/>
</g>
<mask id="mask17">
  <g filter="url(#alpha)">
<rect x="0" y="0" width="60" height="60" style="fill:rgb(0%,0%,0%);fill-opacity:0.992157;stroke:none;"/>
  </g>
</mask>
<clipPath id="clip18">
  <rect x="0" y="0" width="60" height="60"/>
</clipPath>
<g id="surface56" clip-path="url(#clip18)">
<path style=" stroke:none;fill-rule:evenodd;fill:rgb(78.431373%,12.54902%,19.607843%);fill-opacity:1;" d="M 20.789062 21.878906 C 19.417969 21.878906 18.042969 21.878906 16.671875 21.878906 C 16.671875 20.425781 16.671875 18.976562 16.671875 17.527344 C 18.355469 17.527344 20.039062 17.527344 21.722656 17.527344 C 21.4375 18.980469 21.125 20.433594 20.789062 21.878906 Z M 20.789062 21.878906 "/>
</g>
<mask id="mask18">
  <g filter="url(#alpha)">
<rect x="0" y="0" width="60" height="60" style="fill:rgb(0%,0%,0%);fill-opacity:0.992157;stroke:none;"/>
  </g>
</mask>
<clipPath id="clip19">
  <rect x="0" y="0" width="60" height="60"/>
</clipPath>
<g id="surface59" clip-path="url(#clip19)">
<path style=" stroke:none;fill-rule:evenodd;fill:rgb(96.470588%,58.823529%,11.372549%);fill-opacity:1;" d="M 27.085938 21.878906 C 25.375 21.878906 23.664062 21.878906 21.957031 21.878906 C 21.957031 20.425781 21.957031 18.976562 21.957031 17.527344 C 23.664062 17.527344 25.375 17.527344 27.085938 17.527344 C 27.085938 18.976562 27.085938 20.425781 27.085938 21.878906 Z M 27.085938 21.878906 "/>
</g>
<mask id="mask19">
  <g filter="url(#alpha)">
<rect x="0" y="0" width="60" height="60" style="fill:rgb(0%,0%,0%);fill-opacity:0.992157;stroke:none;"/>
  </g>
</mask>
<clipPath id="clip20">
  <rect x="0" y="0" width="60" height="60"/>
</clipPath>
<g id="surface62" clip-path="url(#clip20)">
<path style=" stroke:none;fill-rule:evenodd;fill:rgb(96.862745%,58.823529%,11.764706%);fill-opacity:1;" d="M 35.167969 21.878906 C 34.3125 21.878906 33.457031 21.878906 32.605469 21.878906 C 32.605469 20.425781 32.605469 18.976562 32.605469 17.527344 C 34.3125 17.511719 36.023438 17.527344 37.734375 17.566406 C 36.867188 19 36.011719 20.4375 35.167969 21.878906 Z M 35.167969 21.878906 "/>
</g>
<mask id="mask20">
  <g filter="url(#alpha)">
<rect x="0" y="0" width="60" height="60" style="fill:rgb(0%,0%,0%);fill-opacity:0.992157;stroke:none;"/>
  </g>
</mask>
<clipPath id="clip21">
  <rect x="0" y="0" width="60" height="60"/>
</clipPath>
<g id="surface65" clip-path="url(#clip21)">
<path style=" stroke:none;fill-rule:evenodd;fill:rgb(21.568627%,30.980392%,54.117647%);fill-opacity:1;" d="M 43.019531 21.878906 C 41.308594 21.878906 39.597656 21.878906 37.886719 21.878906 C 37.886719 20.425781 37.886719 18.976562 37.886719 17.527344 C 39.597656 17.527344 41.308594 17.527344 43.019531 17.527344 C 43.019531 18.976562 43.019531 20.425781 43.019531 21.878906 Z M 43.019531 21.878906 "/>
</g>
<mask id="mask21">
  <g filter="url(#alpha)">
<rect x="0" y="0" width="60" height="60" style="fill:rgb(0%,0%,0%);fill-opacity:0.988235;stroke:none;"/>
  </g>
</mask>
<clipPath id="clip22">
  <rect x="0" y="0" width="60" height="60"/>
</clipPath>
<g id="surface68" clip-path="url(#clip22)">
<path style=" stroke:none;fill-rule:evenodd;fill:rgb(21.568627%,30.980392%,54.117647%);fill-opacity:1;" d="M 53.664062 21.878906 C 51.957031 21.878906 50.246094 21.878906 48.535156 21.878906 C 48.535156 20.425781 48.535156 18.976562 48.535156 17.527344 C 50.246094 17.527344 51.957031 17.527344 53.664062 17.527344 C 53.664062 18.976562 53.664062 20.425781 53.664062 21.878906 Z M 53.664062 21.878906 "/>
</g>
<mask id="mask22">
  <g filter="url(#alpha)">
<rect x="0" y="0" width="60" height="60" style="fill:rgb(0%,0%,0%);fill-opacity:0.992157;stroke:none;"/>
  </g>
</mask>
<clipPath id="clip23">
  <rect x="0" y="0" width="60" height="60"/>
</clipPath>
<g id="surface71" clip-path="url(#clip23)">
<path style=" stroke:none;fill-rule:evenodd;fill:rgb(96.862745%,58.823529%,12.156863%);fill-opacity:1;" d="M 32.449219 21.878906 C 31.65625 21.902344 30.878906 21.878906 30.117188 21.800781 C 30.878906 20.480469 31.644531 19.160156 32.410156 17.835938 C 32.449219 19.183594 32.460938 20.53125 32.449219 21.878906 Z M 32.449219 21.878906 "/>
</g>
<mask id="mask23">
  <g filter="url(#alpha)">
<rect x="0" y="0" width="60" height="60" style="fill:rgb(0%,0%,0%);fill-opacity:0.984314;stroke:none;"/>
  </g>
</mask>
<clipPath id="clip24">
  <rect x="0" y="0" width="60" height="60"/>
</clipPath>
<g id="surface74" clip-path="url(#clip24)">
<path style=" stroke:none;fill-rule:evenodd;fill:rgb(78.431373%,14.117647%,20.392157%);fill-opacity:1;" d="M 12.164062 21.878906 C 11.878906 21.878906 11.59375 21.878906 11.308594 21.878906 C 11.296875 20.6875 11.308594 19.496094 11.347656 18.304688 C 11.628906 19.492188 11.898438 20.6875 12.164062 21.878906 Z M 12.164062 21.878906 "/>
</g>
<mask id="mask24">
  <g filter="url(#alpha)">
<rect x="0" y="0" width="60" height="60" style="fill:rgb(0%,0%,0%);fill-opacity:0.988235;stroke:none;"/>
  </g>
</mask>
<clipPath id="clip25">
  <rect x="0" y="0" width="60" height="60"/>
</clipPath>
<g id="surface77" clip-path="url(#clip25)">
<path style=" stroke:none;fill-rule:evenodd;fill:rgb(78.823529%,14.901961%,20.784314%);fill-opacity:1;" d="M 16.4375 21.878906 C 16.386719 21.878906 16.335938 21.878906 16.28125 21.878906 C 16.050781 21.878906 15.816406 21.878906 15.582031 21.878906 C 15.632812 21.648438 15.660156 21.414062 15.660156 21.179688 C 15.785156 20.886719 15.863281 20.578125 15.894531 20.246094 C 16.121094 19.625 16.289062 18.976562 16.398438 18.304688 C 16.4375 19.496094 16.449219 20.6875 16.4375 21.878906 Z M 16.4375 21.878906 "/>
</g>
<mask id="mask25">
  <g filter="url(#alpha)">
<rect x="0" y="0" width="60" height="60" style="fill:rgb(0%,0%,0%);fill-opacity:0.0980392;stroke:none;"/>
  </g>
</mask>
<clipPath id="clip26">
  <rect x="0" y="0" width="60" height="60"/>
</clipPath>
<g id="surface80" clip-path="url(#clip26)">
<path style=" stroke:none;fill-rule:evenodd;fill:rgb(99.607843%,98.823529%,98.823529%);fill-opacity:1;" d="M 15.894531 20.246094 C 15.863281 20.578125 15.785156 20.886719 15.660156 21.179688 C 15.667969 20.839844 15.746094 20.53125 15.894531 20.246094 Z M 15.894531 20.246094 "/>
</g>
<mask id="mask26">
  <g filter="url(#alpha)">
<rect x="0" y="0" width="60" height="60" style="fill:rgb(0%,0%,0%);fill-opacity:0.678431;stroke:none;"/>
  </g>
</mask>
<clipPath id="clip27">
  <rect x="0" y="0" width="60" height="60"/>
</clipPath>
<g id="surface83" clip-path="url(#clip27)">
<path style=" stroke:none;fill-rule:evenodd;fill:rgb(98.823529%,95.294118%,95.294118%);fill-opacity:1;" d="M 15.660156 21.179688 C 15.660156 21.414062 15.632812 21.648438 15.582031 21.878906 C 15.816406 21.878906 16.050781 21.878906 16.28125 21.878906 C 16.023438 21.929688 15.765625 21.980469 15.503906 22.035156 C 15.46875 22.339844 15.390625 22.625 15.273438 22.886719 C 15.332031 22.292969 15.460938 21.722656 15.660156 21.179688 Z M 15.660156 21.179688 "/>
</g>
<mask id="mask27">
  <g filter="url(#alpha)">
<rect x="0" y="0" width="60" height="60" style="fill:rgb(0%,0%,0%);fill-opacity:0.992157;stroke:none;"/>
  </g>
</mask>
<clipPath id="clip28">
  <rect x="0" y="0" width="60" height="60"/>
</clipPath>
<g id="surface86" clip-path="url(#clip28)">
<path style=" stroke:none;fill-rule:evenodd;fill:rgb(89.019608%,56.078431%,59.607843%);fill-opacity:1;" d="M 6.957031 21.800781 C 8.347656 21.878906 9.746094 21.902344 11.152344 21.878906 C 11.152344 21.929688 11.152344 21.980469 11.152344 22.035156 C 9.78125 22.035156 8.40625 22.035156 7.035156 22.035156 C 6.984375 21.964844 6.960938 21.886719 6.957031 21.800781 Z M 6.957031 21.800781 "/>
</g>
<mask id="mask28">
  <g filter="url(#alpha)">
<rect x="0" y="0" width="60" height="60" style="fill:rgb(0%,0%,0%);fill-opacity:0.988235;stroke:none;"/>
  </g>
</mask>
<clipPath id="clip29">
  <rect x="0" y="0" width="60" height="60"/>
</clipPath>
<g id="surface89" clip-path="url(#clip29)">
<path style=" stroke:none;fill-rule:evenodd;fill:rgb(88.627451%,56.078431%,59.215686%);fill-opacity:1;" d="M 11.308594 21.878906 C 11.59375 21.878906 11.878906 21.878906 12.164062 21.878906 C 12.164062 21.929688 12.164062 21.980469 12.164062 22.035156 C 11.878906 22.035156 11.59375 22.035156 11.308594 22.035156 C 11.308594 21.980469 11.308594 21.929688 11.308594 21.878906 Z M 11.308594 21.878906 "/>
</g>
<mask id="mask29">
  <g filter="url(#alpha)">
<rect x="0" y="0" width="60" height="60" style="fill:rgb(0%,0%,0%);fill-opacity:0.960784;stroke:none;"/>
  </g>
</mask>
<clipPath id="clip30">
  <rect x="0" y="0" width="60" height="60"/>
</clipPath>
<g id="surface92" clip-path="url(#clip30)">
<path style=" stroke:none;fill-rule:evenodd;fill:rgb(88.627451%,56.078431%,59.215686%);fill-opacity:1;" d="M 16.28125 21.878906 C 16.335938 21.878906 16.386719 21.878906 16.4375 21.878906 C 16.4375 21.929688 16.4375 21.980469 16.4375 22.035156 C 16.125 22.035156 15.816406 22.035156 15.503906 22.035156 C 15.765625 21.980469 16.023438 21.929688 16.28125 21.878906 Z M 16.28125 21.878906 "/>
</g>
<mask id="mask30">
  <g filter="url(#alpha)">
<rect x="0" y="0" width="60" height="60" style="fill:rgb(0%,0%,0%);fill-opacity:0.984314;stroke:none;"/>
  </g>
</mask>
<clipPath id="clip31">
  <rect x="0" y="0" width="60" height="60"/>
</clipPath>
<g id="surface95" clip-path="url(#clip31)">
<path style=" stroke:none;fill-rule:evenodd;fill:rgb(88.627451%,56.078431%,59.215686%);fill-opacity:1;" d="M 16.671875 21.878906 C 18.042969 21.878906 19.417969 21.878906 20.789062 21.878906 C 20.765625 21.929688 20.738281 21.980469 20.710938 22.035156 C 19.367188 22.035156 18.019531 22.035156 16.671875 22.035156 C 16.671875 21.980469 16.671875 21.929688 16.671875 21.878906 Z M 16.671875 21.878906 "/>
</g>
<mask id="mask31">
  <g filter="url(#alpha)">
<rect x="0" y="0" width="60" height="60" style="fill:rgb(0%,0%,0%);fill-opacity:0.968627;stroke:none;"/>
  </g>
</mask>
<clipPath id="clip32">
  <rect x="0" y="0" width="60" height="60"/>
</clipPath>
<g id="surface98" clip-path="url(#clip32)">
<path style=" stroke:none;fill-rule:evenodd;fill:rgb(98.039216%,79.215686%,55.294118%);fill-opacity:1;" d="M 21.957031 21.878906 C 23.664062 21.878906 25.375 21.878906 27.085938 21.878906 C 27.085938 21.929688 27.085938 21.980469 27.085938 22.035156 C 25.375 22.035156 23.664062 22.035156 21.957031 22.035156 C 21.957031 21.980469 21.957031 21.929688 21.957031 21.878906 Z M 21.957031 21.878906 "/>
</g>
<mask id="mask32">
  <g filter="url(#alpha)">
<rect x="0" y="0" width="60" height="60" style="fill:rgb(0%,0%,0%);fill-opacity:0.988235;stroke:none;"/>
  </g>
</mask>
<clipPath id="clip33">
  <rect x="0" y="0" width="60" height="60"/>
</clipPath>
<g id="surface101" clip-path="url(#clip33)">
<path style=" stroke:none;fill-rule:evenodd;fill:rgb(98.431373%,79.215686%,56.078431%);fill-opacity:1;" d="M 30.039062 21.800781 C 30.066406 21.800781 30.089844 21.800781 30.117188 21.800781 C 30.878906 21.878906 31.65625 21.902344 32.449219 21.878906 C 32.449219 21.929688 32.449219 21.980469 32.449219 22.035156 C 31.621094 22.035156 30.789062 22.035156 29.960938 22.035156 C 30.007812 21.964844 30.035156 21.886719 30.039062 21.800781 Z M 30.039062 21.800781 "/>
</g>
<mask id="mask33">
  <g filter="url(#alpha)">
<rect x="0" y="0" width="60" height="60" style="fill:rgb(0%,0%,0%);fill-opacity:0.980392;stroke:none;"/>
  </g>
</mask>
<clipPath id="clip34">
  <rect x="0" y="0" width="60" height="60"/>
</clipPath>
<g id="surface104" clip-path="url(#clip34)">
<path style=" stroke:none;fill-rule:evenodd;fill:rgb(98.039216%,79.215686%,55.294118%);fill-opacity:1;" d="M 32.605469 21.878906 C 33.457031 21.878906 34.3125 21.878906 35.167969 21.878906 C 35.140625 21.929688 35.117188 21.980469 35.089844 22.035156 C 34.261719 22.035156 33.433594 22.035156 32.605469 22.035156 C 32.605469 21.980469 32.605469 21.929688 32.605469 21.878906 Z M 32.605469 21.878906 "/>
</g>
<mask id="mask34">
  <g filter="url(#alpha)">
<rect x="0" y="0" width="60" height="60" style="fill:rgb(0%,0%,0%);fill-opacity:0.988235;stroke:none;"/>
  </g>
</mask>
<clipPath id="clip35">
  <rect x="0" y="0" width="60" height="60"/>
</clipPath>
<g id="surface107" clip-path="url(#clip35)">
<path style=" stroke:none;fill-rule:evenodd;fill:rgb(60.392157%,65.490196%,76.470588%);fill-opacity:1;" d="M 37.886719 21.878906 C 39.597656 21.878906 41.308594 21.878906 43.019531 21.878906 C 43.019531 21.929688 43.019531 21.980469 43.019531 22.035156 C 41.308594 22.035156 39.597656 22.035156 37.886719 22.035156 C 37.886719 21.980469 37.886719 21.929688 37.886719 21.878906 Z M 37.886719 21.878906 "/>
</g>
<mask id="mask35">
  <g filter="url(#alpha)">
<rect x="0" y="0" width="60" height="60" style="fill:rgb(0%,0%,0%);fill-opacity:0.984314;stroke:none;"/>
  </g>
</mask>
<clipPath id="clip36">
  <rect x="0" y="0" width="60" height="60"/>
</clipPath>
<g id="surface110" clip-path="url(#clip36)">
<path style=" stroke:none;fill-rule:evenodd;fill:rgb(60.392157%,65.490196%,76.470588%);fill-opacity:1;" d="M 48.535156 21.878906 C 50.246094 21.878906 51.957031 21.878906 53.664062 21.878906 C 53.664062 21.929688 53.664062 21.980469 53.664062 22.035156 C 51.957031 22.035156 50.246094 22.035156 48.535156 22.035156 C 48.535156 21.980469 48.535156 21.929688 48.535156 21.878906 Z M 48.535156 21.878906 "/>
</g>
<mask id="mask36">
  <g filter="url(#alpha)">
<rect x="0" y="0" width="60" height="60" style="fill:rgb(0%,0%,0%);fill-opacity:0.992157;stroke:none;"/>
  </g>
</mask>
<clipPath id="clip37">
  <rect x="0" y="0" width="60" height="60"/>
</clipPath>
<g id="surface113" clip-path="url(#clip37)">
<path style=" stroke:none;fill-rule:evenodd;fill:rgb(78.431373%,12.54902%,19.607843%);fill-opacity:1;" d="M 7.035156 22.035156 C 8.40625 22.035156 9.78125 22.035156 11.152344 22.035156 C 11.152344 23.457031 11.152344 24.882812 11.152344 26.308594 C 10.117188 26.308594 9.082031 26.308594 8.042969 26.308594 C 7.71875 24.878906 7.382812 23.453125 7.035156 22.035156 Z M 7.035156 22.035156 "/>
</g>
<mask id="mask37">
  <g filter="url(#alpha)">
<rect x="0" y="0" width="60" height="60" style="fill:rgb(0%,0%,0%);fill-opacity:0.992157;stroke:none;"/>
  </g>
</mask>
<clipPath id="clip38">
  <rect x="0" y="0" width="60" height="60"/>
</clipPath>
<g id="surface116" clip-path="url(#clip38)">
<path style=" stroke:none;fill-rule:evenodd;fill:rgb(78.431373%,12.941176%,19.607843%);fill-opacity:1;" d="M 11.308594 22.035156 C 11.59375 22.035156 11.878906 22.035156 12.164062 22.035156 C 12.542969 23.386719 12.882812 24.761719 13.171875 26.152344 C 12.582031 26.304688 11.960938 26.359375 11.308594 26.308594 C 11.308594 24.882812 11.308594 23.457031 11.308594 22.035156 Z M 11.308594 22.035156 "/>
</g>
<mask id="mask38">
  <g filter="url(#alpha)">
<rect x="0" y="0" width="60" height="60" style="fill:rgb(0%,0%,0%);fill-opacity:0.996078;stroke:none;"/>
  </g>
</mask>
<clipPath id="clip39">
  <rect x="0" y="0" width="60" height="60"/>
</clipPath>
<g id="surface119" clip-path="url(#clip39)">
<path style=" stroke:none;fill-rule:evenodd;fill:rgb(78.431373%,12.941176%,19.607843%);fill-opacity:1;" d="M 15.503906 22.035156 C 15.816406 22.035156 16.125 22.035156 16.4375 22.035156 C 16.4375 23.457031 16.4375 24.882812 16.4375 26.308594 C 15.800781 26.332031 15.179688 26.308594 14.574219 26.230469 C 14.84375 25.125 15.074219 24.011719 15.273438 22.886719 C 15.390625 22.625 15.46875 22.339844 15.503906 22.035156 Z M 15.503906 22.035156 "/>
</g>
<mask id="mask39">
  <g filter="url(#alpha)">
<rect x="0" y="0" width="60" height="60" style="fill:rgb(0%,0%,0%);fill-opacity:0.992157;stroke:none;"/>
  </g>
</mask>
<clipPath id="clip40">
  <rect x="0" y="0" width="60" height="60"/>
</clipPath>
<g id="surface122" clip-path="url(#clip40)">
<path style=" stroke:none;fill-rule:evenodd;fill:rgb(78.039216%,12.54902%,19.215686%);fill-opacity:1;" d="M 16.671875 22.035156 C 18.019531 22.035156 19.367188 22.035156 20.710938 22.035156 C 20.363281 23.457031 20.027344 24.878906 19.703125 26.308594 C 18.691406 26.308594 17.679688 26.308594 16.671875 26.308594 C 16.671875 24.882812 16.671875 23.457031 16.671875 22.035156 Z M 16.671875 22.035156 "/>
</g>
<mask id="mask40">
  <g filter="url(#alpha)">
<rect x="0" y="0" width="60" height="60" style="fill:rgb(0%,0%,0%);fill-opacity:0.992157;stroke:none;"/>
  </g>
</mask>
<clipPath id="clip41">
  <rect x="0" y="0" width="60" height="60"/>
</clipPath>
<g id="surface125" clip-path="url(#clip41)">
<path style=" stroke:none;fill-rule:evenodd;fill:rgb(96.470588%,58.823529%,11.372549%);fill-opacity:1;" d="M 21.957031 22.035156 C 23.664062 22.035156 25.375 22.035156 27.085938 22.035156 C 27.085938 23.457031 27.085938 24.882812 27.085938 26.308594 C 25.375 26.308594 23.664062 26.308594 21.957031 26.308594 C 21.957031 24.882812 21.957031 23.457031 21.957031 22.035156 Z M 21.957031 22.035156 "/>
</g>
<mask id="mask41">
  <g filter="url(#alpha)">
<rect x="0" y="0" width="60" height="60" style="fill:rgb(0%,0%,0%);fill-opacity:0.996078;stroke:none;"/>
  </g>
</mask>
<clipPath id="clip42">
  <rect x="0" y="0" width="60" height="60"/>
</clipPath>
<g id="surface128" clip-path="url(#clip42)">
<path style=" stroke:none;fill-rule:evenodd;fill:rgb(96.862745%,58.823529%,11.764706%);fill-opacity:1;" d="M 29.960938 22.035156 C 30.789062 22.035156 31.621094 22.035156 32.449219 22.035156 C 32.449219 23.457031 32.449219 24.882812 32.449219 26.308594 C 30.777344 26.335938 29.117188 26.308594 27.472656 26.230469 C 28.273438 24.808594 29.105469 23.410156 29.960938 22.035156 Z M 29.960938 22.035156 "/>
</g>
<mask id="mask42">
  <g filter="url(#alpha)">
<rect x="0" y="0" width="60" height="60" style="fill:rgb(0%,0%,0%);fill-opacity:0.988235;stroke:none;"/>
  </g>
</mask>
<clipPath id="clip43">
  <rect x="0" y="0" width="60" height="60"/>
</clipPath>
<g id="surface131" clip-path="url(#clip43)">
<path style=" stroke:none;fill-rule:evenodd;fill:rgb(96.862745%,58.823529%,12.156863%);fill-opacity:1;" d="M 32.605469 22.035156 C 33.433594 22.035156 34.261719 22.035156 35.089844 22.035156 C 34.292969 23.441406 33.476562 24.839844 32.640625 26.230469 C 32.605469 24.832031 32.589844 23.433594 32.605469 22.035156 Z M 32.605469 22.035156 "/>
</g>
<mask id="mask43">
  <g filter="url(#alpha)">
<rect x="0" y="0" width="60" height="60" style="fill:rgb(0%,0%,0%);fill-opacity:0.992157;stroke:none;"/>
  </g>
</mask>
<clipPath id="clip44">
  <rect x="0" y="0" width="60" height="60"/>
</clipPath>
<g id="surface134" clip-path="url(#clip44)">
<path style=" stroke:none;fill-rule:evenodd;fill:rgb(21.568627%,30.980392%,54.117647%);fill-opacity:1;" d="M 37.886719 22.035156 C 39.597656 22.035156 41.308594 22.035156 43.019531 22.035156 C 43.019531 23.457031 43.019531 24.882812 43.019531 26.308594 C 41.308594 26.308594 39.597656 26.308594 37.886719 26.308594 C 37.886719 24.882812 37.886719 23.457031 37.886719 22.035156 Z M 37.886719 22.035156 "/>
</g>
<mask id="mask44">
  <g filter="url(#alpha)">
<rect x="0" y="0" width="60" height="60" style="fill:rgb(0%,0%,0%);fill-opacity:0.988235;stroke:none;"/>
  </g>
</mask>
<clipPath id="clip45">
  <rect x="0" y="0" width="60" height="60"/>
</clipPath>
<g id="surface137" clip-path="url(#clip45)">
<path style=" stroke:none;fill-rule:evenodd;fill:rgb(21.568627%,30.980392%,54.117647%);fill-opacity:1;" d="M 48.535156 22.035156 C 50.246094 22.035156 51.957031 22.035156 53.664062 22.035156 C 53.664062 23.457031 53.664062 24.882812 53.664062 26.308594 C 51.957031 26.308594 50.246094 26.308594 48.535156 26.308594 C 48.535156 24.882812 48.535156 23.457031 48.535156 22.035156 Z M 48.535156 22.035156 "/>
</g>
<mask id="mask45">
  <g filter="url(#alpha)">
<rect x="0" y="0" width="60" height="60" style="fill:rgb(0%,0%,0%);fill-opacity:0.913725;stroke:none;"/>
  </g>
</mask>
<clipPath id="clip46">
  <rect x="0" y="0" width="60" height="60"/>
</clipPath>
<g id="surface140" clip-path="url(#clip46)">
<path style=" stroke:none;fill-rule:evenodd;fill:rgb(88.627451%,56.078431%,59.215686%);fill-opacity:1;" d="M 13.171875 26.152344 C 13.242188 26.207031 13.269531 26.285156 13.25 26.386719 C 12.589844 26.410156 11.941406 26.386719 11.308594 26.308594 C 11.960938 26.359375 12.582031 26.304688 13.171875 26.152344 Z M 13.171875 26.152344 "/>
</g>
<mask id="mask46">
  <g filter="url(#alpha)">
<rect x="0" y="0" width="60" height="60" style="fill:rgb(0%,0%,0%);fill-opacity:0.847059;stroke:none;"/>
  </g>
</mask>
<clipPath id="clip47">
  <rect x="0" y="0" width="60" height="60"/>
</clipPath>
<g id="surface143" clip-path="url(#clip47)">
<path style=" stroke:none;fill-rule:evenodd;fill:rgb(98.039216%,79.215686%,55.294118%);fill-opacity:1;" d="M 27.472656 26.230469 C 29.117188 26.308594 30.777344 26.335938 32.449219 26.308594 C 30.777344 26.410156 29.09375 26.410156 27.394531 26.308594 C 27.40625 26.261719 27.433594 26.234375 27.472656 26.230469 Z M 27.472656 26.230469 "/>
</g>
<mask id="mask47">
  <g filter="url(#alpha)">
<rect x="0" y="0" width="60" height="60" style="fill:rgb(0%,0%,0%);fill-opacity:0.960784;stroke:none;"/>
  </g>
</mask>
<clipPath id="clip48">
  <rect x="0" y="0" width="60" height="60"/>
</clipPath>
<g id="surface146" clip-path="url(#clip48)">
<path style=" stroke:none;fill-rule:evenodd;fill:rgb(89.019608%,56.862745%,60.392157%);fill-opacity:1;" d="M 14.574219 26.230469 C 15.179688 26.308594 15.800781 26.332031 16.4375 26.308594 C 15.800781 26.410156 15.15625 26.410156 14.496094 26.308594 C 14.503906 26.261719 14.53125 26.234375 14.574219 26.230469 Z M 14.574219 26.230469 "/>
</g>
<mask id="mask48">
  <g filter="url(#alpha)">
<rect x="0" y="0" width="60" height="60" style="fill:rgb(0%,0%,0%);fill-opacity:0.992157;stroke:none;"/>
  </g>
</mask>
<clipPath id="clip49">
  <rect x="0" y="0" width="60" height="60"/>
</clipPath>
<g id="surface149" clip-path="url(#clip49)">
<path style=" stroke:none;fill-rule:evenodd;fill:rgb(78.431373%,12.54902%,19.607843%);fill-opacity:1;" d="M 8.121094 26.464844 C 9.132812 26.464844 10.140625 26.464844 11.152344 26.464844 C 11.152344 27.914062 11.152344 29.367188 11.152344 30.816406 C 10.476562 30.839844 9.804688 30.816406 9.132812 30.738281 C 8.757812 29.320312 8.421875 27.898438 8.121094 26.464844 Z M 8.121094 26.464844 "/>
</g>
<mask id="mask49">
  <g filter="url(#alpha)">
<rect x="0" y="0" width="60" height="60" style="fill:rgb(0%,0%,0%);fill-opacity:0.996078;stroke:none;"/>
  </g>
</mask>
<clipPath id="clip50">
  <rect x="0" y="0" width="60" height="60"/>
</clipPath>
<g id="surface152" clip-path="url(#clip50)">
<path style=" stroke:none;fill-rule:evenodd;fill:rgb(78.431373%,12.54902%,19.607843%);fill-opacity:1;" d="M 11.308594 26.464844 C 11.957031 26.4375 12.605469 26.464844 13.25 26.542969 C 13.449219 27.296875 13.65625 28.046875 13.875 28.796875 C 14.082031 28.015625 14.289062 27.238281 14.496094 26.464844 C 15.140625 26.464844 15.789062 26.464844 16.4375 26.464844 C 16.4375 27.914062 16.4375 29.367188 16.4375 30.816406 C 14.726562 30.816406 13.019531 30.816406 11.308594 30.816406 C 11.308594 29.367188 11.308594 27.914062 11.308594 26.464844 Z M 11.308594 26.464844 "/>
</g>
<mask id="mask50">
  <g filter="url(#alpha)">
<rect x="0" y="0" width="60" height="60" style="fill:rgb(0%,0%,0%);fill-opacity:0.996078;stroke:none;"/>
  </g>
</mask>
<clipPath id="clip51">
  <rect x="0" y="0" width="60" height="60"/>
</clipPath>
<g id="surface155" clip-path="url(#clip51)">
<path style=" stroke:none;fill-rule:evenodd;fill:rgb(78.431373%,12.54902%,19.607843%);fill-opacity:1;" d="M 16.671875 26.464844 C 17.65625 26.4375 18.640625 26.464844 19.625 26.542969 C 19.273438 27.964844 18.9375 29.386719 18.613281 30.816406 C 17.964844 30.816406 17.320312 30.816406 16.671875 30.816406 C 16.671875 29.367188 16.671875 27.914062 16.671875 26.464844 Z M 16.671875 26.464844 "/>
</g>
<mask id="mask51">
  <g filter="url(#alpha)">
<rect x="0" y="0" width="60" height="60" style="fill:rgb(0%,0%,0%);fill-opacity:0.992157;stroke:none;"/>
  </g>
</mask>
<clipPath id="clip52">
  <rect x="0" y="0" width="60" height="60"/>
</clipPath>
<g id="surface158" clip-path="url(#clip52)">
<path style=" stroke:none;fill-rule:evenodd;fill:rgb(96.470588%,58.823529%,11.372549%);fill-opacity:1;" d="M 21.957031 26.464844 C 23.664062 26.464844 25.375 26.464844 27.085938 26.464844 C 27.085938 27.914062 27.085938 29.367188 27.085938 30.816406 C 25.375 30.816406 23.664062 30.816406 21.957031 30.816406 C 21.957031 29.367188 21.957031 27.914062 21.957031 26.464844 Z M 21.957031 26.464844 "/>
</g>
<mask id="mask52">
  <g filter="url(#alpha)">
<rect x="0" y="0" width="60" height="60" style="fill:rgb(0%,0%,0%);fill-opacity:0.992157;stroke:none;"/>
  </g>
</mask>
<clipPath id="clip53">
  <rect x="0" y="0" width="60" height="60"/>
</clipPath>
<g id="surface161" clip-path="url(#clip53)">
<path style=" stroke:none;fill-rule:evenodd;fill:rgb(96.862745%,58.823529%,11.764706%);fill-opacity:1;" d="M 27.320312 26.464844 C 29.027344 26.449219 30.738281 26.464844 32.449219 26.503906 C 31.988281 27.269531 31.546875 28.046875 31.125 28.835938 C 31.515625 29.480469 31.902344 30.128906 32.292969 30.777344 C 30.636719 30.816406 28.976562 30.828125 27.320312 30.816406 C 27.320312 29.367188 27.320312 27.914062 27.320312 26.464844 Z M 27.320312 26.464844 "/>
</g>
<mask id="mask53">
  <g filter="url(#alpha)">
<rect x="0" y="0" width="60" height="60" style="fill:rgb(0%,0%,0%);fill-opacity:0.992157;stroke:none;"/>
  </g>
</mask>
<clipPath id="clip54">
  <rect x="0" y="0" width="60" height="60"/>
</clipPath>
<g id="surface164" clip-path="url(#clip54)">
<path style=" stroke:none;fill-rule:evenodd;fill:rgb(21.568627%,30.980392%,54.117647%);fill-opacity:1;" d="M 37.886719 26.464844 C 39.597656 26.464844 41.308594 26.464844 43.019531 26.464844 C 43.019531 27.914062 43.019531 29.367188 43.019531 30.816406 C 41.308594 30.816406 39.597656 30.816406 37.886719 30.816406 C 37.886719 29.367188 37.886719 27.914062 37.886719 26.464844 Z M 37.886719 26.464844 "/>
</g>
<mask id="mask54">
  <g filter="url(#alpha)">
<rect x="0" y="0" width="60" height="60" style="fill:rgb(0%,0%,0%);fill-opacity:0.988235;stroke:none;"/>
  </g>
</mask>
<clipPath id="clip55">
  <rect x="0" y="0" width="60" height="60"/>
</clipPath>
<g id="surface167" clip-path="url(#clip55)">
<path style=" stroke:none;fill-rule:evenodd;fill:rgb(21.568627%,30.980392%,54.117647%);fill-opacity:1;" d="M 48.535156 26.464844 C 50.246094 26.464844 51.957031 26.464844 53.664062 26.464844 C 53.664062 27.914062 53.664062 29.367188 53.664062 30.816406 C 51.957031 30.816406 50.246094 30.816406 48.535156 30.816406 C 48.535156 29.367188 48.535156 27.914062 48.535156 26.464844 Z M 48.535156 26.464844 "/>
</g>
<mask id="mask55">
  <g filter="url(#alpha)">
<rect x="0" y="0" width="60" height="60" style="fill:rgb(0%,0%,0%);fill-opacity:0.988235;stroke:none;"/>
  </g>
</mask>
<clipPath id="clip56">
  <rect x="0" y="0" width="60" height="60"/>
</clipPath>
<g id="surface170" clip-path="url(#clip56)">
<path style=" stroke:none;fill-rule:evenodd;fill:rgb(78.431373%,12.54902%,19.607843%);fill-opacity:1;" d="M 9.210938 30.972656 C 9.859375 30.972656 10.503906 30.972656 11.152344 30.972656 C 11.152344 32.421875 11.152344 33.871094 11.152344 35.324219 C 10.820312 35.347656 10.496094 35.320312 10.179688 35.246094 C 9.820312 33.828125 9.496094 32.402344 9.210938 30.972656 Z M 9.210938 30.972656 "/>
</g>
<mask id="mask56">
  <g filter="url(#alpha)">
<rect x="0" y="0" width="60" height="60" style="fill:rgb(0%,0%,0%);fill-opacity:0.992157;stroke:none;"/>
  </g>
</mask>
<clipPath id="clip57">
  <rect x="0" y="0" width="60" height="60"/>
</clipPath>
<g id="surface173" clip-path="url(#clip57)">
<path style=" stroke:none;fill-rule:evenodd;fill:rgb(78.039216%,12.54902%,19.215686%);fill-opacity:1;" d="M 11.308594 30.972656 C 13.019531 30.972656 14.726562 30.972656 16.4375 30.972656 C 16.4375 32.421875 16.4375 33.871094 16.4375 35.324219 C 14.726562 35.324219 13.019531 35.324219 11.308594 35.324219 C 11.308594 33.871094 11.308594 32.421875 11.308594 30.972656 Z M 11.308594 30.972656 "/>
</g>
<mask id="mask57">
  <g filter="url(#alpha)">
<rect x="0" y="0" width="60" height="60" style="fill:rgb(0%,0%,0%);fill-opacity:0.992157;stroke:none;"/>
  </g>
</mask>
<clipPath id="clip58">
  <rect x="0" y="0" width="60" height="60"/>
</clipPath>
<g id="surface176" clip-path="url(#clip58)">
<path style=" stroke:none;fill-rule:evenodd;fill:rgb(78.431373%,12.54902%,19.607843%);fill-opacity:1;" d="M 16.671875 30.972656 C 17.292969 30.972656 17.914062 30.972656 18.535156 30.972656 C 18.199219 32.421875 17.863281 33.871094 17.527344 35.324219 C 17.242188 35.324219 16.957031 35.324219 16.671875 35.324219 C 16.671875 33.871094 16.671875 32.421875 16.671875 30.972656 Z M 16.671875 30.972656 "/>
</g>
<mask id="mask58">
  <g filter="url(#alpha)">
<rect x="0" y="0" width="60" height="60" style="fill:rgb(0%,0%,0%);fill-opacity:0.988235;stroke:none;"/>
  </g>
</mask>
<clipPath id="clip59">
  <rect x="0" y="0" width="60" height="60"/>
</clipPath>
<g id="surface179" clip-path="url(#clip59)">
<path style=" stroke:none;fill-rule:evenodd;fill:rgb(96.470588%,58.823529%,11.372549%);fill-opacity:1;" d="M 21.957031 30.972656 C 23.664062 30.972656 25.375 30.972656 27.085938 30.972656 C 27.085938 32.421875 27.085938 33.871094 27.085938 35.324219 C 25.375 35.324219 23.664062 35.324219 21.957031 35.324219 C 21.957031 33.871094 21.957031 32.421875 21.957031 30.972656 Z M 21.957031 30.972656 "/>
</g>
<mask id="mask59">
  <g filter="url(#alpha)">
<rect x="0" y="0" width="60" height="60" style="fill:rgb(0%,0%,0%);fill-opacity:0.992157;stroke:none;"/>
  </g>
</mask>
<clipPath id="clip60">
  <rect x="0" y="0" width="60" height="60"/>
</clipPath>
<g id="surface182" clip-path="url(#clip60)">
<path style=" stroke:none;fill-rule:evenodd;fill:rgb(96.862745%,58.823529%,11.764706%);fill-opacity:1;" d="M 27.320312 31.050781 C 29.015625 30.972656 30.726562 30.945312 32.449219 30.972656 C 32.449219 32.421875 32.449219 33.871094 32.449219 35.324219 C 31.589844 35.351562 30.738281 35.324219 29.882812 35.246094 C 29.027344 33.84375 28.171875 32.441406 27.320312 31.050781 Z M 27.320312 31.050781 "/>
</g>
<mask id="mask60">
  <g filter="url(#alpha)">
<rect x="0" y="0" width="60" height="60" style="fill:rgb(0%,0%,0%);fill-opacity:0.992157;stroke:none;"/>
  </g>
</mask>
<clipPath id="clip61">
  <rect x="0" y="0" width="60" height="60"/>
</clipPath>
<g id="surface185" clip-path="url(#clip61)">
<path style=" stroke:none;fill-rule:evenodd;fill:rgb(21.568627%,30.980392%,54.117647%);fill-opacity:1;" d="M 37.886719 30.972656 C 39.597656 30.972656 41.308594 30.972656 43.019531 30.972656 C 43.019531 32.421875 43.019531 33.871094 43.019531 35.324219 C 41.308594 35.324219 39.597656 35.324219 37.886719 35.324219 C 37.886719 33.871094 37.886719 32.421875 37.886719 30.972656 Z M 37.886719 30.972656 "/>
</g>
<mask id="mask61">
  <g filter="url(#alpha)">
<rect x="0" y="0" width="60" height="60" style="fill:rgb(0%,0%,0%);fill-opacity:0.988235;stroke:none;"/>
  </g>
</mask>
<clipPath id="clip62">
  <rect x="0" y="0" width="60" height="60"/>
</clipPath>
<g id="surface188" clip-path="url(#clip62)">
<path style=" stroke:none;fill-rule:evenodd;fill:rgb(21.568627%,30.980392%,54.117647%);fill-opacity:1;" d="M 48.535156 30.972656 C 50.246094 30.972656 51.957031 30.972656 53.664062 30.972656 C 53.664062 32.421875 53.664062 33.871094 53.664062 35.324219 C 51.957031 35.324219 50.246094 35.324219 48.535156 35.324219 C 48.535156 33.871094 48.535156 32.421875 48.535156 30.972656 Z M 48.535156 30.972656 "/>
</g>
<mask id="mask62">
  <g filter="url(#alpha)">
<rect x="0" y="0" width="60" height="60" style="fill:rgb(0%,0%,0%);fill-opacity:0.980392;stroke:none;"/>
  </g>
</mask>
<clipPath id="clip63">
  <rect x="0" y="0" width="60" height="60"/>
</clipPath>
<g id="surface191" clip-path="url(#clip63)">
<path style=" stroke:none;fill-rule:evenodd;fill:rgb(96.862745%,58.823529%,12.156863%);fill-opacity:1;" d="M 32.605469 31.359375 C 33.417969 32.65625 34.21875 33.964844 35.011719 35.285156 C 34.210938 35.324219 33.40625 35.335938 32.605469 35.324219 C 32.605469 34.003906 32.605469 32.679688 32.605469 31.359375 Z M 32.605469 31.359375 "/>
</g>
<mask id="mask63">
  <g filter="url(#alpha)">
<rect x="0" y="0" width="60" height="60" style="fill:rgb(0%,0%,0%);fill-opacity:0.976471;stroke:none;"/>
  </g>
</mask>
<clipPath id="clip64">
  <rect x="0" y="0" width="60" height="60"/>
</clipPath>
<g id="surface194" clip-path="url(#clip64)">
<path style=" stroke:none;fill-rule:evenodd;fill:rgb(78.431373%,12.941176%,19.607843%);fill-opacity:1;" d="M 10.21875 35.558594 C 10.515625 35.480469 10.828125 35.453125 11.152344 35.480469 C 11.164062 36.722656 11.152344 37.964844 11.113281 39.210938 C 10.824219 37.980469 10.527344 36.761719 10.21875 35.558594 Z M 10.21875 35.558594 "/>
</g>
<mask id="mask64">
  <g filter="url(#alpha)">
<rect x="0" y="0" width="60" height="60" style="fill:rgb(0%,0%,0%);fill-opacity:0.988235;stroke:none;"/>
  </g>
</mask>
<clipPath id="clip65">
  <rect x="0" y="0" width="60" height="60"/>
</clipPath>
<g id="surface197" clip-path="url(#clip65)">
<path style=" stroke:none;fill-rule:evenodd;fill:rgb(78.039216%,12.54902%,19.215686%);fill-opacity:1;" d="M 11.308594 35.480469 C 13.019531 35.480469 14.726562 35.480469 16.4375 35.480469 C 16.4375 36.929688 16.4375 38.378906 16.4375 39.832031 C 14.726562 39.832031 13.019531 39.832031 11.308594 39.832031 C 11.308594 38.378906 11.308594 36.929688 11.308594 35.480469 Z M 11.308594 35.480469 "/>
</g>
<mask id="mask65">
  <g filter="url(#alpha)">
<rect x="0" y="0" width="60" height="60" style="fill:rgb(0%,0%,0%);fill-opacity:0.835294;stroke:none;"/>
  </g>
</mask>
<clipPath id="clip66">
  <rect x="0" y="0" width="60" height="60"/>
</clipPath>
<g id="surface200" clip-path="url(#clip66)">
<path style=" stroke:none;fill-rule:evenodd;fill:rgb(88.627451%,56.078431%,59.215686%);fill-opacity:1;" d="M 16.671875 35.480469 C 16.644531 36.554688 16.671875 37.617188 16.75 38.664062 C 16.710938 38.742188 16.671875 38.820312 16.632812 38.898438 C 16.566406 37.746094 16.582031 36.605469 16.671875 35.480469 Z M 16.671875 35.480469 "/>
</g>
<mask id="mask66">
  <g filter="url(#alpha)">
<rect x="0" y="0" width="60" height="60" style="fill:rgb(0%,0%,0%);fill-opacity:0.988235;stroke:none;"/>
  </g>
</mask>
<clipPath id="clip67">
  <rect x="0" y="0" width="60" height="60"/>
</clipPath>
<g id="surface203" clip-path="url(#clip67)">
<path style=" stroke:none;fill-rule:evenodd;fill:rgb(78.431373%,13.333333%,20%);fill-opacity:1;" d="M 16.671875 35.480469 C 16.929688 35.480469 17.1875 35.480469 17.449219 35.480469 C 17.203125 36.539062 16.96875 37.601562 16.75 38.664062 C 16.671875 37.617188 16.644531 36.554688 16.671875 35.480469 Z M 16.671875 35.480469 "/>
</g>
<mask id="mask67">
  <g filter="url(#alpha)">
<rect x="0" y="0" width="60" height="60" style="fill:rgb(0%,0%,0%);fill-opacity:0.984314;stroke:none;"/>
  </g>
</mask>
<clipPath id="clip68">
  <rect x="0" y="0" width="60" height="60"/>
</clipPath>
<g id="surface206" clip-path="url(#clip68)">
<path style=" stroke:none;fill-rule:evenodd;fill:rgb(96.470588%,58.823529%,11.372549%);fill-opacity:1;" d="M 21.957031 35.480469 C 23.664062 35.480469 25.375 35.480469 27.085938 35.480469 C 27.085938 36.929688 27.085938 38.378906 27.085938 39.832031 C 25.375 39.832031 23.664062 39.832031 21.957031 39.832031 C 21.957031 38.378906 21.957031 36.929688 21.957031 35.480469 Z M 21.957031 35.480469 "/>
</g>
<mask id="mask68">
  <g filter="url(#alpha)">
<rect x="0" y="0" width="60" height="60" style="fill:rgb(0%,0%,0%);fill-opacity:0.980392;stroke:none;"/>
  </g>
</mask>
<clipPath id="clip69">
  <rect x="0" y="0" width="60" height="60"/>
</clipPath>
<g id="surface209" clip-path="url(#clip69)">
<path style=" stroke:none;fill-rule:evenodd;fill:rgb(96.862745%,58.823529%,12.156863%);fill-opacity:1;" d="M 30.039062 35.558594 C 30.828125 35.480469 31.632812 35.453125 32.449219 35.480469 C 32.460938 36.800781 32.449219 38.121094 32.410156 39.441406 C 31.597656 38.15625 30.808594 36.859375 30.039062 35.558594 Z M 30.039062 35.558594 "/>
</g>
<mask id="mask69">
  <g filter="url(#alpha)">
<rect x="0" y="0" width="60" height="60" style="fill:rgb(0%,0%,0%);fill-opacity:0.984314;stroke:none;"/>
  </g>
</mask>
<clipPath id="clip70">
  <rect x="0" y="0" width="60" height="60"/>
</clipPath>
<g id="surface212" clip-path="url(#clip70)">
<path style=" stroke:none;fill-rule:evenodd;fill:rgb(96.862745%,58.823529%,11.764706%);fill-opacity:1;" d="M 32.605469 35.480469 C 33.460938 35.453125 34.316406 35.480469 35.167969 35.558594 C 36.023438 36.957031 36.878906 38.355469 37.734375 39.753906 C 36.023438 39.832031 34.3125 39.859375 32.605469 39.832031 C 32.605469 38.378906 32.605469 36.929688 32.605469 35.480469 Z M 32.605469 35.480469 "/>
</g>
<mask id="mask70">
  <g filter="url(#alpha)">
<rect x="0" y="0" width="60" height="60" style="fill:rgb(0%,0%,0%);fill-opacity:0.988235;stroke:none;"/>
  </g>
</mask>
<clipPath id="clip71">
  <rect x="0" y="0" width="60" height="60"/>
</clipPath>
<g id="surface215" clip-path="url(#clip71)">
<path style=" stroke:none;fill-rule:evenodd;fill:rgb(21.568627%,30.980392%,54.117647%);fill-opacity:1;" d="M 37.886719 35.480469 C 39.597656 35.480469 41.308594 35.480469 43.019531 35.480469 C 43.019531 36.929688 43.019531 38.378906 43.019531 39.832031 C 42.058594 39.84375 41.101562 39.832031 40.140625 39.792969 C 39.066406 39.671875 38.328125 39.117188 37.925781 38.121094 C 37.886719 37.242188 37.875 36.359375 37.886719 35.480469 Z M 37.886719 35.480469 "/>
</g>
<mask id="mask71">
  <g filter="url(#alpha)">
<rect x="0" y="0" width="60" height="60" style="fill:rgb(0%,0%,0%);fill-opacity:0.988235;stroke:none;"/>
  </g>
</mask>
<clipPath id="clip72">
  <rect x="0" y="0" width="60" height="60"/>
</clipPath>
<g id="surface218" clip-path="url(#clip72)">
<path style=" stroke:none;fill-rule:evenodd;fill:rgb(21.568627%,30.980392%,54.117647%);fill-opacity:1;" d="M 43.25 35.480469 C 44.960938 35.480469 46.671875 35.480469 48.378906 35.480469 C 48.378906 36.929688 48.378906 38.378906 48.378906 39.832031 C 46.671875 39.832031 44.960938 39.832031 43.25 39.832031 C 43.25 38.378906 43.25 36.929688 43.25 35.480469 Z M 43.25 35.480469 "/>
</g>
<mask id="mask72">
  <g filter="url(#alpha)">
<rect x="0" y="0" width="60" height="60" style="fill:rgb(0%,0%,0%);fill-opacity:0.988235;stroke:none;"/>
  </g>
</mask>
<clipPath id="clip73">
  <rect x="0" y="0" width="60" height="60"/>
</clipPath>
<g id="surface221" clip-path="url(#clip73)">
<path style=" stroke:none;fill-rule:evenodd;fill:rgb(21.568627%,30.980392%,54.117647%);fill-opacity:1;" d="M 48.535156 35.480469 C 50.246094 35.480469 51.957031 35.480469 53.664062 35.480469 C 53.679688 36.335938 53.664062 37.191406 53.625 38.042969 C 53.453125 38.761719 53.027344 39.265625 52.34375 39.558594 C 52.046875 39.683594 51.734375 39.761719 51.410156 39.792969 C 50.453125 39.832031 49.496094 39.84375 48.535156 39.832031 C 48.535156 38.378906 48.535156 36.929688 48.535156 35.480469 Z M 48.535156 35.480469 "/>
</g>
<mask id="mask73">
  <g filter="url(#alpha)">
<rect x="0" y="0" width="60" height="60" style="fill:rgb(0%,0%,0%);fill-opacity:0.0705882;stroke:none;"/>
  </g>
</mask>
<clipPath id="clip74">
  <rect x="0" y="0" width="60" height="60"/>
</clipPath>
<g id="surface224" clip-path="url(#clip74)">
<path style=" stroke:none;fill-rule:evenodd;fill:rgb(100%,98.823529%,98.039216%);fill-opacity:1;" d="M 44.574219 41.386719 C 43.847656 41.339844 43.121094 41.289062 42.394531 41.230469 C 40.921875 41.074219 39.445312 40.945312 37.964844 40.84375 C 36.402344 40.679688 34.820312 40.574219 33.226562 40.53125 C 33.070312 40.53125 32.914062 40.53125 32.757812 40.53125 C 31.046875 40.4375 29.339844 40.4375 27.628906 40.53125 C 27.265625 40.53125 26.902344 40.53125 26.542969 40.53125 C 25.699219 40.546875 24.871094 40.601562 24.054688 40.6875 C 23.460938 40.738281 22.863281 40.761719 22.265625 40.765625 C 21.8125 40.789062 21.371094 40.839844 20.945312 40.917969 C 20.53125 40.925781 20.113281 40.949219 19.703125 40.996094 C 19.324219 41.023438 18.960938 41.074219 18.613281 41.152344 C 18.300781 41.152344 17.988281 41.179688 17.679688 41.230469 C 16.652344 41.34375 15.644531 41.5 14.648438 41.695312 C 13.742188 41.816406 12.835938 41.945312 11.929688 42.085938 C 11.75 42.085938 11.566406 42.085938 11.386719 42.085938 C 16.636719 41.066406 21.910156 40.496094 27.203125 40.375 C 27.394531 40.320312 27.585938 40.269531 27.785156 40.21875 C 27.882812 40.070312 27.972656 39.914062 28.058594 39.753906 C 28.082031 39.78125 28.109375 39.804688 28.132812 39.832031 C 28.625 39.78125 29.121094 39.726562 29.613281 39.675781 C 29.765625 39.78125 29.921875 39.78125 30.078125 39.675781 C 30.675781 39.851562 31.257812 39.917969 31.828125 39.871094 C 32.097656 40.042969 32.378906 40.199219 32.679688 40.335938 C 36.675781 40.484375 40.640625 40.832031 44.574219 41.386719 Z M 44.574219 41.386719 "/>
</g>
<mask id="mask74">
  <g filter="url(#alpha)">
<rect x="0" y="0" width="60" height="60" style="fill:rgb(0%,0%,0%);fill-opacity:0.992157;stroke:none;"/>
  </g>
</mask>
<clipPath id="clip75">
  <rect x="0" y="0" width="60" height="60"/>
</clipPath>
<g id="surface227" clip-path="url(#clip75)">
<path style=" stroke:none;fill-rule:evenodd;fill:rgb(96.862745%,57.647059%,10.588235%);fill-opacity:1;" d="M 32.757812 40.53125 C 32.914062 40.53125 33.070312 40.53125 33.226562 40.53125 C 33.515625 40.644531 33.828125 40.710938 34.15625 40.726562 C 34.703125 40.75 35.246094 40.777344 35.789062 40.804688 C 34.832031 40.855469 33.871094 40.839844 32.914062 40.765625 C 32.363281 40.796875 31.816406 40.757812 31.28125 40.648438 C 31.789062 40.632812 32.28125 40.59375 32.757812 40.53125 Z M 32.757812 40.53125 "/>
</g>
<mask id="mask75">
  <g filter="url(#alpha)">
<rect x="0" y="0" width="60" height="60" style="fill:rgb(0%,0%,0%);fill-opacity:0.929412;stroke:none;"/>
  </g>
</mask>
<clipPath id="clip76">
  <rect x="0" y="0" width="60" height="60"/>
</clipPath>
<g id="surface230" clip-path="url(#clip76)">
<path style=" stroke:none;fill-rule:evenodd;fill:rgb(97.647059%,70.588235%,37.647059%);fill-opacity:1;" d="M 26.542969 40.53125 C 26.507812 40.585938 26.457031 40.625 26.386719 40.648438 C 25.609375 40.6875 24.832031 40.699219 24.054688 40.6875 C 24.871094 40.601562 25.699219 40.546875 26.542969 40.53125 Z M 26.542969 40.53125 "/>
</g>
<mask id="mask76">
  <g filter="url(#alpha)">
<rect x="0" y="0" width="60" height="60" style="fill:rgb(0%,0%,0%);fill-opacity:0.988235;stroke:none;"/>
  </g>
</mask>
<clipPath id="clip77">
  <rect x="0" y="0" width="60" height="60"/>
</clipPath>
<g id="surface233" clip-path="url(#clip77)">
<path style=" stroke:none;fill-rule:evenodd;fill:rgb(97.254902%,62.352941%,21.176471%);fill-opacity:1;" d="M 33.226562 40.53125 C 34.820312 40.574219 36.402344 40.679688 37.964844 40.84375 C 37.421875 40.828125 36.878906 40.84375 36.335938 40.878906 C 36.894531 41.003906 37.464844 41.082031 38.042969 41.113281 C 38.085938 41.144531 38.113281 41.183594 38.121094 41.230469 C 36.496094 41.054688 34.863281 40.941406 33.226562 40.878906 C 33.105469 40.863281 33 40.824219 32.914062 40.765625 C 33.871094 40.839844 34.832031 40.855469 35.789062 40.804688 C 35.246094 40.777344 34.703125 40.75 34.15625 40.726562 C 33.828125 40.710938 33.515625 40.644531 33.226562 40.53125 Z M 33.226562 40.53125 "/>
</g>
<mask id="mask77">
  <g filter="url(#alpha)">
<rect x="0" y="0" width="60" height="60" style="fill:rgb(0%,0%,0%);fill-opacity:0.996078;stroke:none;"/>
  </g>
</mask>
<clipPath id="clip78">
  <rect x="0" y="0" width="60" height="60"/>
</clipPath>
<g id="surface236" clip-path="url(#clip78)">
<path style=" stroke:none;fill-rule:evenodd;fill:rgb(96.862745%,58.823529%,13.72549%);fill-opacity:1;" d="M 26.542969 40.53125 C 26.902344 40.53125 27.265625 40.53125 27.628906 40.53125 C 28.238281 40.59375 28.859375 40.632812 29.496094 40.648438 C 26.027344 40.972656 22.558594 41.28125 19.082031 41.582031 C 17.171875 41.859375 15.257812 42.117188 13.328125 42.359375 C 12.109375 42.679688 10.867188 42.902344 9.597656 43.019531 C 9.597656 43.121094 9.597656 43.226562 9.597656 43.328125 C 9.707031 43.316406 9.808594 43.328125 9.910156 43.367188 C 9.839844 43.390625 9.785156 43.429688 9.753906 43.484375 C 8.277344 43.558594 6.800781 43.636719 5.324219 43.71875 C 5.21875 43.730469 5.113281 43.71875 5.011719 43.679688 C 5.207031 43.625 5.390625 43.558594 5.558594 43.484375 C 7.664062 42.953125 9.789062 42.484375 11.929688 42.085938 C 12.835938 41.945312 13.742188 41.816406 14.648438 41.695312 C 15.320312 41.617188 15.996094 41.554688 16.671875 41.503906 C 17.019531 41.429688 17.359375 41.339844 17.679688 41.230469 C 17.988281 41.179688 18.300781 41.152344 18.613281 41.152344 C 18.925781 41.164062 19.238281 41.152344 19.546875 41.113281 C 19.617188 41.09375 19.667969 41.054688 19.703125 40.996094 C 20.113281 40.949219 20.53125 40.925781 20.945312 40.917969 C 21.335938 40.933594 21.722656 40.917969 22.113281 40.878906 C 22.183594 40.859375 22.234375 40.820312 22.265625 40.765625 C 22.863281 40.761719 23.460938 40.738281 24.054688 40.6875 C 24.832031 40.699219 25.609375 40.6875 26.386719 40.648438 C 26.457031 40.625 26.507812 40.585938 26.542969 40.53125 Z M 26.542969 40.53125 "/>
</g>
<mask id="mask78">
  <g filter="url(#alpha)">
<rect x="0" y="0" width="60" height="60" style="fill:rgb(0%,0%,0%);fill-opacity:0.996078;stroke:none;"/>
  </g>
</mask>
<clipPath id="clip79">
  <rect x="0" y="0" width="60" height="60"/>
</clipPath>
<g id="surface239" clip-path="url(#clip79)">
<path style=" stroke:none;fill-rule:evenodd;fill:rgb(97.647059%,67.45098%,34.117647%);fill-opacity:1;" d="M 32.757812 40.53125 C 32.28125 40.59375 31.789062 40.632812 31.28125 40.648438 C 31.816406 40.757812 32.363281 40.796875 32.914062 40.765625 C 33 40.824219 33.105469 40.863281 33.226562 40.878906 C 34.863281 40.941406 36.496094 41.054688 38.121094 41.230469 C 42.144531 41.59375 46.132812 42.148438 50.089844 42.902344 C 50.53125 42.960938 50.96875 43 51.410156 43.019531 C 51.433594 43.140625 51.40625 43.246094 51.335938 43.328125 C 48.019531 43.167969 44.703125 43.023438 41.386719 42.902344 C 39.496094 42.851562 37.605469 42.851562 35.710938 42.902344 C 35.808594 42.917969 35.886719 42.957031 35.945312 43.019531 C 29.484375 42.894531 23.03125 42.945312 16.59375 43.171875 C 14.453125 43.203125 12.328125 43.304688 10.21875 43.484375 C 10.066406 43.484375 9.910156 43.484375 9.753906 43.484375 C 9.785156 43.429688 9.839844 43.390625 9.910156 43.367188 C 9.808594 43.328125 9.707031 43.316406 9.597656 43.328125 C 9.597656 43.226562 9.597656 43.121094 9.597656 43.019531 C 10.867188 42.902344 12.109375 42.679688 13.328125 42.359375 C 15.257812 42.117188 17.171875 41.859375 19.082031 41.582031 C 22.558594 41.28125 26.027344 40.972656 29.496094 40.648438 C 28.859375 40.632812 28.238281 40.59375 27.628906 40.53125 C 29.339844 40.4375 31.046875 40.4375 32.757812 40.53125 Z M 32.757812 40.53125 "/>
</g>
<mask id="mask79">
  <g filter="url(#alpha)">
<rect x="0" y="0" width="60" height="60" style="fill:rgb(0%,0%,0%);fill-opacity:0.964706;stroke:none;"/>
  </g>
</mask>
<clipPath id="clip80">
  <rect x="0" y="0" width="60" height="60"/>
</clipPath>
<g id="surface242" clip-path="url(#clip80)">
<path style=" stroke:none;fill-rule:evenodd;fill:rgb(97.647059%,70.196078%,36.862745%);fill-opacity:1;" d="M 22.265625 40.765625 C 22.234375 40.820312 22.183594 40.859375 22.113281 40.878906 C 21.722656 40.917969 21.335938 40.933594 20.945312 40.917969 C 21.371094 40.839844 21.8125 40.789062 22.265625 40.765625 Z M 22.265625 40.765625 "/>
</g>
<mask id="mask80">
  <g filter="url(#alpha)">
<rect x="0" y="0" width="60" height="60" style="fill:rgb(0%,0%,0%);fill-opacity:0.905882;stroke:none;"/>
  </g>
</mask>
<clipPath id="clip81">
  <rect x="0" y="0" width="60" height="60"/>
</clipPath>
<g id="surface245" clip-path="url(#clip81)">
<path style=" stroke:none;fill-rule:evenodd;fill:rgb(98.039216%,71.372549%,39.215686%);fill-opacity:1;" d="M 19.703125 40.996094 C 19.667969 41.054688 19.617188 41.09375 19.546875 41.113281 C 19.238281 41.152344 18.925781 41.164062 18.613281 41.152344 C 18.960938 41.074219 19.324219 41.023438 19.703125 40.996094 Z M 19.703125 40.996094 "/>
</g>
<mask id="mask81">
  <g filter="url(#alpha)">
<rect x="0" y="0" width="60" height="60" style="fill:rgb(0%,0%,0%);fill-opacity:0.996078;stroke:none;"/>
  </g>
</mask>
<clipPath id="clip82">
  <rect x="0" y="0" width="60" height="60"/>
</clipPath>
<g id="surface248" clip-path="url(#clip82)">
<path style=" stroke:none;fill-rule:evenodd;fill:rgb(96.862745%,58.431373%,12.156863%);fill-opacity:1;" d="M 28.949219 40.996094 C 29.089844 40.976562 29.21875 41 29.339844 41.074219 C 28.144531 41.523438 26.980469 42.027344 25.84375 42.589844 C 21.511719 42.644531 17.183594 42.746094 12.863281 42.902344 C 14.59375 42.582031 16.328125 42.296875 18.070312 42.046875 C 21.703125 41.625 25.328125 41.277344 28.949219 40.996094 Z M 28.949219 40.996094 "/>
</g>
<mask id="mask82">
  <g filter="url(#alpha)">
<rect x="0" y="0" width="60" height="60" style="fill:rgb(0%,0%,0%);fill-opacity:0.996078;stroke:none;"/>
  </g>
</mask>
<clipPath id="clip83">
  <rect x="0" y="0" width="60" height="60"/>
</clipPath>
<g id="surface251" clip-path="url(#clip83)">
<path style=" stroke:none;fill-rule:evenodd;fill:rgb(96.862745%,58.431373%,12.156863%);fill-opacity:1;" d="M 47.679688 42.785156 C 47.515625 42.835938 47.332031 42.863281 47.136719 42.863281 C 45.429688 42.777344 43.71875 42.726562 42.007812 42.707031 C 39.675781 42.679688 37.34375 42.640625 35.011719 42.589844 C 34.066406 42.140625 33.109375 41.714844 32.136719 41.308594 C 32.058594 41.242188 31.980469 41.179688 31.902344 41.113281 C 37.207031 41.339844 42.46875 41.898438 47.679688 42.785156 Z M 47.679688 42.785156 "/>
</g>
<mask id="mask83">
  <g filter="url(#alpha)">
<rect x="0" y="0" width="60" height="60" style="fill:rgb(0%,0%,0%);fill-opacity:0.996078;stroke:none;"/>
  </g>
</mask>
<clipPath id="clip84">
  <rect x="0" y="0" width="60" height="60"/>
</clipPath>
<g id="surface254" clip-path="url(#clip84)">
<path style=" stroke:none;fill-rule:evenodd;fill:rgb(96.862745%,59.215686%,13.72549%);fill-opacity:1;" d="M 29.960938 41.152344 C 30.039062 41.152344 30.117188 41.152344 30.195312 41.152344 C 30.21875 41.640625 30.191406 42.117188 30.117188 42.589844 C 29.027344 42.65625 27.941406 42.640625 26.851562 42.550781 C 27.894531 42.082031 28.929688 41.613281 29.960938 41.152344 Z M 29.960938 41.152344 "/>
</g>
<mask id="mask84">
  <g filter="url(#alpha)">
<rect x="0" y="0" width="60" height="60" style="fill:rgb(0%,0%,0%);fill-opacity:0.996078;stroke:none;"/>
  </g>
</mask>
<clipPath id="clip85">
  <rect x="0" y="0" width="60" height="60"/>
</clipPath>
<g id="surface257" clip-path="url(#clip85)">
<path style=" stroke:none;fill-rule:evenodd;fill:rgb(96.862745%,58.431373%,11.764706%);fill-opacity:1;" d="M 30.816406 41.230469 C 31.871094 41.550781 32.878906 41.980469 33.847656 42.511719 C 32.835938 42.550781 31.828125 42.566406 30.816406 42.550781 C 30.816406 42.113281 30.816406 41.671875 30.816406 41.230469 Z M 30.816406 41.230469 "/>
</g>
<mask id="mask85">
  <g filter="url(#alpha)">
<rect x="0" y="0" width="60" height="60" style="fill:rgb(0%,0%,0%);fill-opacity:0.976471;stroke:none;"/>
  </g>
</mask>
<clipPath id="clip86">
  <rect x="0" y="0" width="60" height="60"/>
</clipPath>
<g id="surface260" clip-path="url(#clip86)">
<path style=" stroke:none;fill-rule:evenodd;fill:rgb(97.647059%,67.45098%,31.372549%);fill-opacity:1;" d="M 17.679688 41.230469 C 17.359375 41.339844 17.019531 41.429688 16.671875 41.503906 C 15.996094 41.554688 15.320312 41.617188 14.648438 41.695312 C 15.644531 41.5 16.652344 41.34375 17.679688 41.230469 Z M 17.679688 41.230469 "/>
</g>
<mask id="mask86">
  <g filter="url(#alpha)">
<rect x="0" y="0" width="60" height="60" style="fill:rgb(0%,0%,0%);fill-opacity:0.992157;stroke:none;"/>
  </g>
</mask>
<clipPath id="clip87">
  <rect x="0" y="0" width="60" height="60"/>
</clipPath>
<g id="surface263" clip-path="url(#clip87)">
<path style=" stroke:none;fill-rule:evenodd;fill:rgb(98.039216%,69.803922%,37.254902%);fill-opacity:1;" d="M 44.105469 41.464844 C 44.4375 41.453125 44.75 41.503906 45.039062 41.621094 C 44.703125 41.652344 44.390625 41.601562 44.105469 41.464844 Z M 44.105469 41.464844 "/>
</g>
<mask id="mask87">
  <g filter="url(#alpha)">
<rect x="0" y="0" width="60" height="60" style="fill:rgb(0%,0%,0%);fill-opacity:0.0392157;stroke:none;"/>
  </g>
</mask>
<clipPath id="clip88">
  <rect x="0" y="0" width="60" height="60"/>
</clipPath>
<g id="surface266" clip-path="url(#clip88)">
<path style=" stroke:none;fill-rule:evenodd;fill:rgb(100%,94.509804%,89.019608%);fill-opacity:1;" d="M 42.394531 41.230469 C 43.121094 41.289062 43.847656 41.339844 44.574219 41.386719 C 47.921875 41.753906 51.214844 42.375 54.441406 43.25 C 54.59375 43.296875 54.722656 43.371094 54.832031 43.484375 C 51.605469 42.695312 48.34375 42.074219 45.039062 41.621094 C 44.75 41.503906 44.4375 41.453125 44.105469 41.464844 C 43.519531 41.4375 42.949219 41.359375 42.394531 41.230469 Z M 42.394531 41.230469 "/>
</g>
<mask id="mask88">
  <g filter="url(#alpha)">
<rect x="0" y="0" width="60" height="60" style="fill:rgb(0%,0%,0%);fill-opacity:0.996078;stroke:none;"/>
  </g>
</mask>
<clipPath id="clip89">
  <rect x="0" y="0" width="60" height="60"/>
</clipPath>
<g id="surface269" clip-path="url(#clip89)">
<path style=" stroke:none;fill-rule:evenodd;fill:rgb(96.862745%,59.607843%,14.901961%);fill-opacity:1;" d="M 37.964844 40.84375 C 39.445312 40.945312 40.921875 41.074219 42.394531 41.230469 C 42.949219 41.359375 43.519531 41.4375 44.105469 41.464844 C 44.390625 41.601562 44.703125 41.652344 45.039062 41.621094 C 48.34375 42.074219 51.605469 42.695312 54.832031 43.484375 C 55.222656 43.589844 55.222656 43.679688 54.832031 43.757812 C 55.097656 43.796875 55.355469 43.863281 55.609375 43.949219 C 55.757812 44 55.914062 44.027344 56.074219 44.027344 C 55.992188 44.101562 55.886719 44.128906 55.765625 44.105469 C 53.722656 43.902344 51.675781 43.75 49.625 43.640625 C 50.183594 43.480469 50.753906 43.378906 51.335938 43.328125 C 51.40625 43.246094 51.433594 43.140625 51.410156 43.019531 C 50.96875 43 50.53125 42.960938 50.089844 42.902344 C 46.132812 42.148438 42.144531 41.59375 38.121094 41.230469 C 38.113281 41.183594 38.085938 41.144531 38.042969 41.113281 C 37.464844 41.082031 36.894531 41.003906 36.335938 40.878906 C 36.878906 40.84375 37.421875 40.828125 37.964844 40.84375 Z M 37.964844 40.84375 "/>
</g>
<mask id="mask89">
  <g filter="url(#alpha)">
<rect x="0" y="0" width="60" height="60" style="fill:rgb(0%,0%,0%);fill-opacity:0.996078;stroke:none;"/>
  </g>
</mask>
<clipPath id="clip90">
  <rect x="0" y="0" width="60" height="60"/>
</clipPath>
<g id="surface272" clip-path="url(#clip90)">
<path style=" stroke:none;fill-rule:evenodd;fill:rgb(97.254902%,62.745098%,22.352941%);fill-opacity:1;" d="M 42.007812 42.707031 C 43.71875 42.726562 45.429688 42.777344 47.136719 42.863281 C 47.332031 42.863281 47.515625 42.835938 47.679688 42.785156 C 47.953125 42.761719 48.210938 42.800781 48.457031 42.902344 C 48.109375 42.914062 47.757812 42.925781 47.410156 42.941406 C 45.59375 42.910156 43.792969 42.832031 42.007812 42.707031 Z M 42.007812 42.707031 "/>
</g>
<mask id="mask90">
  <g filter="url(#alpha)">
<rect x="0" y="0" width="60" height="60" style="fill:rgb(0%,0%,0%);fill-opacity:0.996078;stroke:none;"/>
  </g>
</mask>
<clipPath id="clip91">
  <rect x="0" y="0" width="60" height="60"/>
</clipPath>
<g id="surface275" clip-path="url(#clip91)">
<path style=" stroke:none;fill-rule:evenodd;fill:rgb(97.254902%,64.313725%,26.27451%);fill-opacity:1;" d="M 51.335938 43.328125 C 50.753906 43.378906 50.183594 43.480469 49.625 43.640625 C 46.726562 43.445312 43.824219 43.289062 40.917969 43.171875 C 41.085938 43.109375 41.265625 43.070312 41.464844 43.058594 C 41.347656 43.019531 41.230469 42.980469 41.113281 42.941406 C 39.914062 43.015625 38.707031 43.042969 37.5 43.019531 C 36.980469 43.019531 36.464844 43.019531 35.945312 43.019531 C 35.886719 42.957031 35.808594 42.917969 35.710938 42.902344 C 37.605469 42.851562 39.496094 42.851562 41.386719 42.902344 C 44.703125 43.023438 48.019531 43.167969 51.335938 43.328125 Z M 51.335938 43.328125 "/>
</g>
<mask id="mask91">
  <g filter="url(#alpha)">
<rect x="0" y="0" width="60" height="60" style="fill:rgb(0%,0%,0%);fill-opacity:0.862745;stroke:none;"/>
  </g>
</mask>
<clipPath id="clip92">
  <rect x="0" y="0" width="60" height="60"/>
</clipPath>
<g id="surface278" clip-path="url(#clip92)">
<path style=" stroke:none;fill-rule:evenodd;fill:rgb(97.647059%,70.588235%,38.039216%);fill-opacity:1;" d="M 40.917969 43.171875 C 39.765625 43.144531 38.625 43.089844 37.5 43.019531 C 38.707031 43.042969 39.914062 43.015625 41.113281 42.941406 C 41.230469 42.980469 41.347656 43.019531 41.464844 43.058594 C 41.265625 43.070312 41.085938 43.109375 40.917969 43.171875 Z M 40.917969 43.171875 "/>
</g>
<mask id="mask92">
  <g filter="url(#alpha)">
<rect x="0" y="0" width="60" height="60" style="fill:rgb(0%,0%,0%);fill-opacity:0.117647;stroke:none;"/>
  </g>
</mask>
<clipPath id="clip93">
  <rect x="0" y="0" width="60" height="60"/>
</clipPath>
<g id="surface281" clip-path="url(#clip93)">
<path style=" stroke:none;fill-rule:evenodd;fill:rgb(100%,96.862745%,93.72549%);fill-opacity:1;" d="M 35.945312 43.019531 C 36.464844 43.019531 36.980469 43.019531 37.5 43.019531 C 38.625 43.089844 39.765625 43.144531 40.917969 43.171875 C 43.824219 43.289062 46.726562 43.445312 49.625 43.640625 C 51.675781 43.75 53.722656 43.902344 55.765625 44.105469 C 55.929688 44.195312 56.109375 44.207031 56.308594 44.144531 C 56.226562 44.105469 56.152344 44.066406 56.074219 44.027344 C 55.914062 44.027344 55.757812 44 55.609375 43.949219 C 55.753906 43.898438 55.910156 43.847656 56.074219 43.796875 C 55.679688 43.617188 55.265625 43.515625 54.832031 43.484375 C 54.722656 43.371094 54.59375 43.296875 54.441406 43.25 C 55.121094 43.34375 55.792969 43.460938 56.464844 43.601562 C 56.746094 43.808594 56.746094 44.027344 56.464844 44.261719 C 56.339844 44.304688 56.210938 44.332031 56.074219 44.339844 C 53.164062 43.972656 50.25 43.738281 47.332031 43.640625 C 42.929688 43.316406 38.539062 43.148438 34.15625 43.132812 C 26.589844 43.0625 19.023438 43.179688 11.464844 43.484375 C 13.175781 43.394531 14.882812 43.292969 16.59375 43.171875 C 23.03125 42.945312 29.484375 42.894531 35.945312 43.019531 Z M 35.945312 43.019531 "/>
</g>
<mask id="mask93">
  <g filter="url(#alpha)">
<rect x="0" y="0" width="60" height="60" style="fill:rgb(0%,0%,0%);fill-opacity:0.741176;stroke:none;"/>
  </g>
</mask>
<clipPath id="clip94">
  <rect x="0" y="0" width="60" height="60"/>
</clipPath>
<g id="surface284" clip-path="url(#clip94)">
<path style=" stroke:none;fill-rule:evenodd;fill:rgb(99.215686%,87.058824%,73.333333%);fill-opacity:1;" d="M 16.59375 43.171875 C 14.882812 43.292969 13.175781 43.394531 11.464844 43.484375 C 11.4375 43.484375 11.410156 43.484375 11.386719 43.484375 C 10.996094 43.484375 10.609375 43.484375 10.21875 43.484375 C 12.328125 43.304688 14.453125 43.203125 16.59375 43.171875 Z M 16.59375 43.171875 "/>
</g>
<mask id="mask94">
  <g filter="url(#alpha)">
<rect x="0" y="0" width="60" height="60" style="fill:rgb(0%,0%,0%);fill-opacity:0.0313725;stroke:none;"/>
  </g>
</mask>
<clipPath id="clip95">
  <rect x="0" y="0" width="60" height="60"/>
</clipPath>
<g id="surface287" clip-path="url(#clip95)">
<path style=" stroke:none;fill-rule:evenodd;fill:rgb(99.607843%,96.862745%,93.333333%);fill-opacity:1;" d="M 11.386719 42.085938 C 11.566406 42.085938 11.75 42.085938 11.929688 42.085938 C 9.789062 42.484375 7.664062 42.953125 5.558594 43.484375 C 5.144531 43.492188 4.753906 43.597656 4.390625 43.796875 C 4.441406 43.820312 4.496094 43.847656 4.546875 43.875 C 4.820312 43.832031 5.078125 43.78125 5.324219 43.71875 C 6.800781 43.636719 8.277344 43.558594 9.753906 43.484375 C 9.910156 43.484375 10.066406 43.484375 10.21875 43.484375 C 10.609375 43.484375 10.996094 43.484375 11.386719 43.484375 C 9.09375 43.671875 6.785156 43.855469 4.46875 44.027344 C 4.273438 43.929688 4.078125 43.929688 3.886719 44.027344 C 3.464844 43.894531 3.464844 43.710938 3.886719 43.484375 C 3.996094 43.539062 4.101562 43.566406 4.195312 43.5625 C 6.574219 43.003906 8.972656 42.511719 11.386719 42.085938 Z M 11.386719 42.085938 "/>
</g>
<mask id="mask95">
  <g filter="url(#alpha)">
<rect x="0" y="0" width="60" height="60" style="fill:rgb(0%,0%,0%);fill-opacity:0.803922;stroke:none;"/>
  </g>
</mask>
<clipPath id="clip96">
  <rect x="0" y="0" width="60" height="60"/>
</clipPath>
<g id="surface290" clip-path="url(#clip96)">
<path style=" stroke:none;fill-rule:evenodd;fill:rgb(98.823529%,80.784314%,59.215686%);fill-opacity:1;" d="M 5.558594 43.484375 C 5.390625 43.558594 5.207031 43.625 5.011719 43.679688 C 5.113281 43.71875 5.21875 43.730469 5.324219 43.71875 C 5.078125 43.78125 4.820312 43.832031 4.546875 43.875 C 4.496094 43.847656 4.441406 43.820312 4.390625 43.796875 C 4.753906 43.597656 5.144531 43.492188 5.558594 43.484375 Z M 5.558594 43.484375 "/>
</g>
<mask id="mask96">
  <g filter="url(#alpha)">
<rect x="0" y="0" width="60" height="60" style="fill:rgb(0%,0%,0%);fill-opacity:0.827451;stroke:none;"/>
  </g>
</mask>
<clipPath id="clip97">
  <rect x="0" y="0" width="60" height="60"/>
</clipPath>
<g id="surface293" clip-path="url(#clip97)">
<path style=" stroke:none;fill-rule:evenodd;fill:rgb(98.823529%,81.176471%,60.392157%);fill-opacity:1;" d="M 54.832031 43.484375 C 55.265625 43.515625 55.679688 43.617188 56.074219 43.796875 C 55.910156 43.847656 55.753906 43.898438 55.609375 43.949219 C 55.355469 43.863281 55.097656 43.796875 54.832031 43.757812 C 55.222656 43.679688 55.222656 43.589844 54.832031 43.484375 Z M 54.832031 43.484375 "/>
</g>
<mask id="mask97">
  <g filter="url(#alpha)">
<rect x="0" y="0" width="60" height="60" style="fill:rgb(0%,0%,0%);fill-opacity:0.866667;stroke:none;"/>
  </g>
</mask>
<clipPath id="clip98">
  <rect x="0" y="0" width="60" height="60"/>
</clipPath>
<g id="surface296" clip-path="url(#clip98)">
<path style=" stroke:none;fill-rule:evenodd;fill:rgb(98.431373%,75.686275%,48.627451%);fill-opacity:1;" d="M 56.074219 44.027344 C 56.152344 44.066406 56.226562 44.105469 56.308594 44.144531 C 56.109375 44.207031 55.929688 44.195312 55.765625 44.105469 C 55.886719 44.128906 55.992188 44.101562 56.074219 44.027344 Z M 56.074219 44.027344 "/>
</g>
</defs>
<g id="surface1">
<use xlink:href="#surface5" mask="url(#mask0)"/>
<use xlink:href="#surface8" mask="url(#mask1)"/>
<use xlink:href="#surface11" mask="url(#mask2)"/>
<use xlink:href="#surface14" mask="url(#mask3)"/>
<use xlink:href="#surface17" mask="url(#mask4)"/>
<use xlink:href="#surface20" mask="url(#mask5)"/>
<use xlink:href="#surface23" mask="url(#mask6)"/>
<use xlink:href="#surface26" mask="url(#mask7)"/>
<use xlink:href="#surface29" mask="url(#mask8)"/>
<use xlink:href="#surface32" mask="url(#mask9)"/>
<use xlink:href="#surface35" mask="url(#mask10)"/>
<use xlink:href="#surface38" mask="url(#mask11)"/>
<use xlink:href="#surface41" mask="url(#mask12)"/>
<use xlink:href="#surface44" mask="url(#mask13)"/>
<use xlink:href="#surface47" mask="url(#mask14)"/>
<use xlink:href="#surface50" mask="url(#mask15)"/>
<use xlink:href="#surface53" mask="url(#mask16)"/>
<use xlink:href="#surface56" mask="url(#mask17)"/>
<use xlink:href="#surface59" mask="url(#mask18)"/>
<use xlink:href="#surface62" mask="url(#mask19)"/>
<use xlink:href="#surface65" mask="url(#mask20)"/>
<use xlink:href="#surface68" mask="url(#mask21)"/>
<use xlink:href="#surface71" mask="url(#mask22)"/>
<use xlink:href="#surface74" mask="url(#mask23)"/>
<use xlink:href="#surface77" mask="url(#mask24)"/>
<use xlink:href="#surface80" mask="url(#mask25)"/>
<use xlink:href="#surface83" mask="url(#mask26)"/>
<use xlink:href="#surface86" mask="url(#mask27)"/>
<use xlink:href="#surface89" mask="url(#mask28)"/>
<use xlink:href="#surface92" mask="url(#mask29)"/>
<use xlink:href="#surface95" mask="url(#mask30)"/>
<use xlink:href="#surface98" mask="url(#mask31)"/>
<use xlink:href="#surface101" mask="url(#mask32)"/>
<use xlink:href="#surface104" mask="url(#mask33)"/>
<use xlink:href="#surface107" mask="url(#mask34)"/>
<use xlink:href="#surface110" mask="url(#mask35)"/>
<use xlink:href="#surface113" mask="url(#mask36)"/>
<use xlink:href="#surface116" mask="url(#mask37)"/>
<use xlink:href="#surface119" mask="url(#mask38)"/>
<use xlink:href="#surface122" mask="url(#mask39)"/>
<use xlink:href="#surface125" mask="url(#mask40)"/>
<use xlink:href="#surface128" mask="url(#mask41)"/>
<use xlink:href="#surface131" mask="url(#mask42)"/>
<use xlink:href="#surface134" mask="url(#mask43)"/>
<use xlink:href="#surface137" mask="url(#mask44)"/>
<use xlink:href="#surface140" mask="url(#mask45)"/>
<use xlink:href="#surface143" mask="url(#mask46)"/>
<use xlink:href="#surface146" mask="url(#mask47)"/>
<use xlink:href="#surface149" mask="url(#mask48)"/>
<use xlink:href="#surface152" mask="url(#mask49)"/>
<use xlink:href="#surface155" mask="url(#mask50)"/>
<use xlink:href="#surface158" mask="url(#mask51)"/>
<use xlink:href="#surface161" mask="url(#mask52)"/>
<use xlink:href="#surface164" mask="url(#mask53)"/>
<use xlink:href="#surface167" mask="url(#mask54)"/>
<use xlink:href="#surface170" mask="url(#mask55)"/>
<use xlink:href="#surface173" mask="url(#mask56)"/>
<use xlink:href="#surface176" mask="url(#mask57)"/>
<use xlink:href="#surface179" mask="url(#mask58)"/>
<use xlink:href="#surface182" mask="url(#mask59)"/>
<use xlink:href="#surface185" mask="url(#mask60)"/>
<use xlink:href="#surface188" mask="url(#mask61)"/>
<use xlink:href="#surface191" mask="url(#mask62)"/>
<use xlink:href="#surface194" mask="url(#mask63)"/>
<use xlink:href="#surface197" mask="url(#mask64)"/>
<use xlink:href="#surface200" mask="url(#mask65)"/>
<use xlink:href="#surface203" mask="url(#mask66)"/>
<use xlink:href="#surface206" mask="url(#mask67)"/>
<use xlink:href="#surface209" mask="url(#mask68)"/>
<use xlink:href="#surface212" mask="url(#mask69)"/>
<use xlink:href="#surface215" mask="url(#mask70)"/>
<use xlink:href="#surface218" mask="url(#mask71)"/>
<use xlink:href="#surface221" mask="url(#mask72)"/>
<use xlink:href="#surface224" mask="url(#mask73)"/>
<use xlink:href="#surface227" mask="url(#mask74)"/>
<use xlink:href="#surface230" mask="url(#mask75)"/>
<use xlink:href="#surface233" mask="url(#mask76)"/>
<use xlink:href="#surface236" mask="url(#mask77)"/>
<use xlink:href="#surface239" mask="url(#mask78)"/>
<use xlink:href="#surface242" mask="url(#mask79)"/>
<use xlink:href="#surface245" mask="url(#mask80)"/>
<use xlink:href="#surface248" mask="url(#mask81)"/>
<use xlink:href="#surface251" mask="url(#mask82)"/>
<use xlink:href="#surface254" mask="url(#mask83)"/>
<use xlink:href="#surface257" mask="url(#mask84)"/>
<use xlink:href="#surface260" mask="url(#mask85)"/>
<use xlink:href="#surface263" mask="url(#mask86)"/>
<use xlink:href="#surface266" mask="url(#mask87)"/>
<use xlink:href="#surface269" mask="url(#mask88)"/>
<use xlink:href="#surface272" mask="url(#mask89)"/>
<use xlink:href="#surface275" mask="url(#mask90)"/>
<use xlink:href="#surface278" mask="url(#mask91)"/>
<use xlink:href="#surface281" mask="url(#mask92)"/>
<use xlink:href="#surface284" mask="url(#mask93)"/>
<use xlink:href="#surface287" mask="url(#mask94)"/>
<use xlink:href="#surface290" mask="url(#mask95)"/>
<use xlink:href="#surface293" mask="url(#mask96)"/>
<use xlink:href="#surface296" mask="url(#mask97)"/>
</g>
</svg>
